<?xml version="1.0" encoding="utf-8"?>
<!-- Generator: Adobe Illustrator 26.0.0, SVG Export Plug-In . SVG Version: 6.00 Build 0)  -->
<svg version="1.1" xmlns="http://www.w3.org/2000/svg" xmlns:xlink="http://www.w3.org/1999/xlink" x="0px" y="0px"
	 viewBox="0 0 216 216" style="enable-background:new 0 0 216 216;" xml:space="preserve">
<style type="text/css">
	.st0{fill:#007DC5;}
	.st1{fill:#FFFFFF;}
	.st2{fill-rule:evenodd;clip-rule:evenodd;fill:#E9E8E9;}
	.st3{fill-rule:evenodd;clip-rule:evenodd;fill:#AFAFAE;}
	.st4{fill-rule:evenodd;clip-rule:evenodd;fill:#FFFFFF;}
	.st5{fill:#5590AE;}
	.st6{fill:#D9692F;}
	.st7{fill:#F7CC4C;}
	.st8{fill:#37459C;}
	.st9{fill:#2CC5F4;}
	.st10{fill:#8BAE45;}
	.st11{fill:#F16468;}
	.st12{fill:#838282;}
</style>
<g id="square_outline">
	<g>
		<path class="st0" d="M196.36,198.1h-180v-180h180V198.1z"/>
	</g>
</g>
<g id="corner_copy_x5F_intel_skills_for_innovation">
	<g>
		<path class="st1" d="M21.67,152.65v-5.96h0.73v5.96H21.67z"/>
		<path class="st1" d="M23.71,148.54h0.68v0.64c0.16-0.24,0.37-0.42,0.63-0.55c0.25-0.13,0.54-0.19,0.85-0.19
			c0.55,0,0.97,0.17,1.28,0.53c0.31,0.35,0.46,0.84,0.46,1.45v2.24h-0.69v-2.2c0-0.43-0.11-0.77-0.32-1.02
			c-0.21-0.25-0.51-0.38-0.89-0.38c-0.39,0-0.71,0.13-0.95,0.4c-0.24,0.27-0.36,0.61-0.36,1.04v2.16h-0.69V148.54z"/>
	</g>
	<g>
		<path class="st1" d="M28.83,151.56v-2.4h-0.56v-0.61h0.56v-1.26h0.69v1.26h0.95v0.61h-0.95v2.34c0,0.18,0.04,0.32,0.12,0.4
			c0.08,0.09,0.21,0.13,0.38,0.13h0.45v0.62h-0.55c-0.38,0-0.66-0.09-0.83-0.26C28.92,152.21,28.83,151.94,28.83,151.56z"/>
		<path class="st1" d="M33.21,152.19c0.27,0,0.52-0.06,0.75-0.17c0.23-0.12,0.44-0.29,0.63-0.53l0.42,0.38
			c-0.23,0.31-0.51,0.54-0.82,0.69c-0.31,0.15-0.66,0.23-1.05,0.23c-0.62,0-1.13-0.2-1.52-0.61c-0.39-0.41-0.59-0.93-0.59-1.56
			c0-0.62,0.2-1.14,0.6-1.55c0.4-0.41,0.9-0.62,1.49-0.62c0.6,0,1.09,0.19,1.47,0.59c0.37,0.39,0.56,0.9,0.56,1.53
			c0,0.05,0,0.1-0.01,0.16c-0.01,0.06-0.01,0.1-0.02,0.13h-3.38c0.04,0.4,0.2,0.73,0.47,0.98C32.5,152.07,32.83,152.19,33.21,152.19
			z M33.15,149.02c-0.36,0-0.66,0.12-0.92,0.35s-0.41,0.54-0.47,0.94h2.71c-0.05-0.4-0.2-0.71-0.43-0.94
			C33.79,149.14,33.5,149.02,33.15,149.02z"/>
	</g>
	<g>
		<path class="st1" d="M36.14,146.69h0.7v5.96h-0.7V146.69z"/>
		<path class="st1" d="M39.61,150.1c-0.53,0-0.97-0.17-1.33-0.51c-0.35-0.34-0.53-0.76-0.53-1.26c0-0.51,0.18-0.93,0.53-1.27
			c0.36-0.34,0.8-0.51,1.33-0.51c0.53,0,0.98,0.17,1.33,0.5c0.35,0.34,0.53,0.76,0.53,1.27c0,0.5-0.18,0.92-0.54,1.26
			C40.58,149.93,40.14,150.1,39.61,150.1z M38.08,148.33c0,0.41,0.15,0.77,0.44,1.05c0.3,0.29,0.66,0.43,1.09,0.43
			c0.44,0,0.8-0.14,1.1-0.42c0.29-0.28,0.44-0.63,0.44-1.05c0-0.42-0.15-0.77-0.44-1.06c-0.3-0.28-0.66-0.43-1.1-0.43
			c-0.44,0-0.8,0.14-1.1,0.42C38.23,147.55,38.08,147.9,38.08,148.33z M39.32,148.54v0.66h-0.37v-1.73h0.84
			c0.19,0,0.34,0.05,0.46,0.14c0.11,0.09,0.17,0.22,0.17,0.39c0,0.12-0.04,0.23-0.11,0.32c-0.07,0.08-0.18,0.14-0.31,0.18l0.42,0.71
			H40l-0.38-0.66H39.32z M40.05,147.99c0-0.06-0.02-0.11-0.06-0.14s-0.11-0.05-0.19-0.05h-0.47v0.39h0.45c0.09,0,0.15-0.02,0.2-0.05
			C40.02,148.11,40.05,148.06,40.05,147.99z"/>
	</g>
	<g>
		<path class="st1" d="M30.95,166c0-0.76-0.3-1.32-0.89-1.67c-0.59-0.35-1.55-0.54-2.86-0.58c-1.8-0.09-3.1-0.4-3.9-0.95
			c-0.8-0.54-1.2-1.38-1.2-2.52c0-1.12,0.48-2.07,1.43-2.83c0.96-0.76,2.16-1.14,3.61-1.14c1.06,0,2.02,0.18,2.87,0.54
			c0.85,0.36,1.6,0.91,2.25,1.65l-1.01,1.07c-0.53-0.59-1.14-1.04-1.86-1.35c-0.71-0.31-1.46-0.47-2.25-0.47
			c-1,0-1.82,0.23-2.47,0.69c-0.65,0.46-0.98,1.03-0.98,1.71c0,0.71,0.29,1.23,0.87,1.55c0.58,0.32,1.52,0.5,2.82,0.53
			c1.79,0.07,3.09,0.4,3.92,0.98c0.82,0.58,1.24,1.47,1.24,2.65c0,1.17-0.49,2.15-1.48,2.92c-0.99,0.78-2.25,1.16-3.79,1.16
			c-1.25,0-2.33-0.2-3.23-0.6c-0.91-0.4-1.71-1.04-2.41-1.91l0.99-1.07c0.64,0.74,1.33,1.28,2.08,1.62
			c0.75,0.34,1.61,0.51,2.57,0.51c1.08,0,1.96-0.24,2.64-0.72C30.61,167.31,30.95,166.72,30.95,166z"/>
		<path class="st1" d="M34.37,156.57h1.52v7.91l4.24-3.84h2.02v0.04l-4.86,4.27l4.87,4.7v0.04h-2.02l-4.26-4.2v4.2h-1.52V156.57z"/>
		<path class="st1" d="M43.33,157.61h1.69v1.67h-1.69V157.61z M43.4,169.7v-9.06h1.54v9.06H43.4z"/>
		<path class="st1" d="M47.28,156.57h1.54v13.12h-1.54V156.57z"/>
		<path class="st1" d="M51.16,156.57h1.54v13.12h-1.54V156.57z"/>
		<path class="st1" d="M62.17,167.05c0,0.85-0.36,1.54-1.09,2.08c-0.72,0.54-1.67,0.81-2.83,0.81c-0.76,0-1.48-0.12-2.15-0.36
			c-0.67-0.24-1.27-0.61-1.81-1.1l0.79-1.16c0.57,0.48,1.11,0.82,1.61,1.03s1.03,0.32,1.59,0.32c0.72,0,1.31-0.14,1.75-0.42
			c0.44-0.28,0.67-0.65,0.67-1.1c0-0.46-0.19-0.8-0.56-1c-0.37-0.2-0.99-0.31-1.86-0.33c-1.26-0.05-2.18-0.28-2.77-0.69
			c-0.58-0.41-0.87-1.06-0.87-1.93c0-0.8,0.33-1.46,1-2c0.67-0.53,1.53-0.8,2.58-0.8c0.71,0,1.38,0.11,2.01,0.34
			c0.62,0.22,1.19,0.56,1.71,0.99l-0.73,1.14c-0.51-0.41-1.01-0.71-1.48-0.9c-0.48-0.19-0.98-0.28-1.52-0.28
			c-0.61,0-1.12,0.14-1.51,0.41c-0.39,0.27-0.59,0.61-0.59,1.01c0,0.44,0.17,0.76,0.53,0.96c0.35,0.2,0.91,0.32,1.67,0.36
			c1.36,0.04,2.35,0.26,2.95,0.67C61.86,165.52,62.17,166.17,62.17,167.05z"/>
		<path class="st1" d="M67.81,161.99h-1.24v-1.35h1.24v-1.71c0-0.76,0.2-1.35,0.61-1.75s0.99-0.61,1.75-0.61h1.24v1.27H70.4
			c-0.35,0-0.61,0.09-0.79,0.28c-0.18,0.19-0.26,0.47-0.26,0.84v1.67h2.06v1.35h-2.06v7.71h-1.54V161.99z"/>
	</g>
	<g>
		<path class="st1" d="M81.39,165.18c0,1.36-0.46,2.5-1.37,3.42c-0.91,0.92-2.04,1.38-3.37,1.38c-1.34,0-2.45-0.46-3.35-1.37
			s-1.34-2.05-1.34-3.41c0-1.36,0.46-2.5,1.37-3.42c0.91-0.92,2.04-1.38,3.37-1.38s2.45,0.46,3.35,1.37
			C80.95,162.68,81.39,163.82,81.39,165.18z M73.52,165.2c0,0.97,0.3,1.79,0.91,2.45c0.61,0.66,1.36,0.99,2.26,0.99
			c0.89,0,1.63-0.33,2.24-0.99c0.61-0.66,0.91-1.49,0.91-2.47c0-0.96-0.31-1.78-0.92-2.45c-0.61-0.67-1.36-1-2.25-1
			c-0.89,0-1.63,0.33-2.24,0.99C73.82,163.39,73.52,164.21,73.52,165.2z"/>
		<path class="st1" d="M83.06,160.64h1.5v1.15c0.27-0.4,0.63-0.7,1.07-0.9c0.44-0.2,0.96-0.3,1.56-0.3h0.82v1.44h-0.84
			c-0.86,0-1.51,0.22-1.94,0.68c-0.43,0.45-0.65,1.13-0.65,2.04v4.95h-1.52V160.64z"/>
	</g>
	<g>
		<path class="st1" d="M22.41,185.03v-13.12h1.61v13.12H22.41z"/>
		<path class="st1" d="M26.49,175.98h1.5v1.41c0.36-0.52,0.82-0.93,1.38-1.21c0.56-0.28,1.18-0.42,1.87-0.42
			c1.2,0,2.14,0.39,2.81,1.16c0.67,0.77,1.01,1.84,1.01,3.19v4.93h-1.52v-4.84c0-0.95-0.23-1.7-0.7-2.25
			c-0.47-0.55-1.12-0.82-1.96-0.82c-0.86,0-1.56,0.29-2.08,0.88c-0.53,0.59-0.79,1.35-0.79,2.29v4.74h-1.52V175.98z"/>
		<path class="st1" d="M37.07,175.98h1.5v1.41c0.36-0.52,0.82-0.93,1.38-1.21c0.56-0.28,1.18-0.42,1.87-0.42
			c1.2,0,2.14,0.39,2.81,1.16c0.67,0.77,1.01,1.84,1.01,3.19v4.93h-1.52v-4.84c0-0.95-0.23-1.7-0.7-2.25
			c-0.47-0.55-1.12-0.82-1.96-0.82c-0.86,0-1.56,0.29-2.08,0.88c-0.53,0.59-0.79,1.35-0.79,2.29v4.74h-1.52V175.98z"/>
		<path class="st1" d="M56.65,180.52c0,1.36-0.46,2.5-1.37,3.42c-0.91,0.92-2.04,1.38-3.37,1.38c-1.34,0-2.45-0.46-3.35-1.37
			c-0.89-0.91-1.34-2.05-1.34-3.41c0-1.36,0.46-2.5,1.37-3.42c0.91-0.92,2.04-1.38,3.37-1.38c1.34,0,2.45,0.46,3.35,1.37
			C56.21,178.02,56.65,179.15,56.65,180.52z M48.78,180.54c0,0.97,0.3,1.79,0.91,2.45c0.61,0.66,1.36,0.99,2.26,0.99
			c0.89,0,1.63-0.33,2.24-0.99c0.61-0.66,0.91-1.49,0.91-2.47c0-0.96-0.31-1.78-0.92-2.45c-0.61-0.67-1.36-1-2.25-1
			c-0.89,0-1.63,0.33-2.24,0.99C49.08,178.72,48.78,179.55,48.78,180.54z"/>
	</g>
	<g>
		<path class="st1" d="M60.99,185.03l-3.88-9.06h1.67l2.94,7.24l2.92-7.24h1.57l-3.84,9.06H60.99z"/>
		<path class="st1" d="M74.96,185.03h-1.48v-1.48c-0.36,0.53-0.85,0.94-1.47,1.23c-0.62,0.29-1.28,0.44-2,0.44
			c-1,0-1.81-0.25-2.44-0.76c-0.62-0.51-0.94-1.17-0.94-2c0-0.91,0.35-1.6,1.05-2.07c0.7-0.47,1.74-0.7,3.11-0.7h2.66
			c-0.01-0.85-0.23-1.51-0.67-1.97c-0.43-0.46-1.05-0.69-1.85-0.69c-0.48,0-0.94,0.1-1.41,0.3c-0.46,0.2-0.92,0.51-1.37,0.92
			l-0.81-1.01c0.53-0.5,1.1-0.88,1.73-1.13c0.62-0.26,1.29-0.38,2.01-0.38c1.21,0,2.16,0.36,2.84,1.08
			c0.68,0.72,1.02,1.71,1.02,2.97V185.03z M73.46,180.87h-2.64c-0.91,0-1.59,0.13-2.02,0.38c-0.44,0.25-0.66,0.64-0.66,1.18
			c0,0.45,0.19,0.83,0.57,1.13s0.87,0.45,1.47,0.45c0.9,0,1.66-0.29,2.28-0.87C73.08,182.55,73.41,181.8,73.46,180.87z"/>
	</g>
	<g>
		<path class="st1" d="M77.29,182.62v-5.29h-1.24v-1.35h1.24v-2.77h1.52v2.77h2.1v1.35h-2.1v5.16c0,0.4,0.09,0.7,0.27,0.89
			c0.18,0.19,0.46,0.29,0.83,0.29h0.99v1.37h-1.22c-0.84,0-1.45-0.19-1.83-0.58C77.48,184.07,77.29,183.45,77.29,182.62z"/>
		<path class="st1" d="M82.33,172.94h1.69v1.67h-1.69V172.94z M82.41,185.03v-9.06h1.54v9.06H82.41z"/>
	</g>
	<g>
		<path class="st1" d="M95.12,180.52c0,1.36-0.46,2.5-1.37,3.42c-0.91,0.92-2.04,1.38-3.37,1.38c-1.34,0-2.45-0.46-3.35-1.37
			c-0.89-0.91-1.34-2.05-1.34-3.41c0-1.36,0.46-2.5,1.37-3.42c0.91-0.92,2.04-1.38,3.37-1.38s2.45,0.46,3.35,1.37
			C94.67,178.02,95.12,179.15,95.12,180.52z M87.25,180.54c0,0.97,0.3,1.79,0.91,2.45c0.61,0.66,1.36,0.99,2.26,0.99
			c0.89,0,1.63-0.33,2.24-0.99c0.61-0.66,0.91-1.49,0.91-2.47c0-0.96-0.31-1.78-0.92-2.45c-0.61-0.67-1.36-1-2.25-1
			c-0.89,0-1.63,0.33-2.24,0.99C87.55,178.72,87.25,179.55,87.25,180.54z"/>
		<path class="st1" d="M96.79,175.98h1.5v1.41c0.36-0.52,0.82-0.93,1.38-1.21c0.56-0.28,1.18-0.42,1.87-0.42
			c1.2,0,2.14,0.39,2.81,1.16c0.68,0.77,1.02,1.84,1.02,3.19v4.93h-1.52v-4.84c0-0.95-0.23-1.7-0.7-2.25
			c-0.47-0.55-1.12-0.82-1.96-0.82c-0.86,0-1.56,0.29-2.08,0.88s-0.79,1.35-0.79,2.29v4.74h-1.52V175.98z"/>
	</g>
</g>
<g id="brain_background">
</g>
<g id="gray_lines_x5F_circles">
</g>
<g id="gray_circles_x5F_background">
</g>
<g id="circles">
	<g>
		<path class="st2" d="M189.82,96.21c1.22,2.6,2.05,3.98,1.77,8.64c-0.26,4.66-1.86,13.07-3.44,19.42c-0.74,2.6-2.26,8.15-5.3,11.37
			c-4.71,4.99-5.91,3.52-14.87,6.12c-4.17,16.57-16.75,20.14-26.92,17.32l2.49,25.49h-18.81l-0.39-10.88
			c0-15.89-14.77-28.96-28.12-30.6c-0.13-0.06-0.29-0.13-0.42-0.19c-0.61,0-1.22,0.06-1.86,0.06h-0.55c-0.48,0-0.96,0-1.44-0.06
			c-1.09-0.06-2.18-0.19-3.34-0.35c-7.13-1.16-13.29-4.37-17.37-8.76c-1.64-1.86-3.08-3.98-4.24-6.29
			c-1.28-2.95-2.66-3.56-4.46-3.76c-1.7-0.19-3.69-0.61-5.2-1.09L57,122.5h-0.35c-1.77,0.19-3.63,0.42-5.27,0.42
			c-16.57,0-30.11-13.42-30.11-29.92c0-7.06,3.21-15.25,6.9-19.04l2.95-3.27c0,0,0-1.16,0.06-1.77c0-0.29,0.06-0.48,0.06-0.74
			c0-0.26,0.06-0.55,0.13-0.83c0.48-2.25,1.28-4.46,2.41-6.42c1.99-3.56,4.85-6.58,8.41-8.48l1.44-0.67
			c0.19-0.06,0.48-0.13,0.67-0.35c0.26-0.06,0.48-0.13,0.83-0.26l0.19-0.13c0.13,0,0.26-0.06,0.42-0.13c0.29,0,0.48-0.13,0.61-0.13
			h0.42l0.35-0.19l0.42-0.19c0.48,0,0.83-0.13,0.96-0.19c0.42,0,0.74-0.06,0.96-0.13c0.06,0,0.13-0.06,0.19-0.06h2.73l0.13-0.19
			l0.35-0.55c3.34-5.49,9.31-8.76,15.8-8.76c1.57,0,3.02,0.13,4.72,0.55l0.96,0.19l0.61-0.74c4.94-5.55,12.1-8.76,19.71-8.76
			c3.92,0,7.61,0.74,10.88,2.18l0.83,0.35l0.74-0.55c2.95-2.05,6.23-2.95,10.59-3.21c4.37-0.29,9.98,1.51,14.86,4.24l5.33-0.13
			c7.13,0,13.68,4.11,16.76,10.4l0.42,0.83l0.48,0.06h0.42c11.3,0.9,20.74,9.73,22.57,21l0.13,0.83l0.83,0.35
			c7.26,3.27,11.98,10.47,11.98,18.4c0,2.6-0.61,5.49-1.86,8.54l-0.26,0.67L189.82,96.21z"/>
		<path class="st3" d="M104.04,81.54L90.39,89.5l15.41-1.57L104.04,81.54z M138.81,93.09l26.65,5.71l-0.03,0.35l19.39-11.59
			l-3.63-7.26L169.18,73l-2.54-13.29l-4.53-5.88l-16.95,11.53L138.81,93.09z M127.57,124.01l18.49,13.36l26.39-9.86l10.95-11.2
			l2.12-6.65l-20.19-10.05l-3.31,23.98l-16.82-7.58l-2.18-6.71L132,116.47l-15.54-17.11l2.12-18.94l2.31-12.04l-20.07-14.29
			l25.46-2.57l11.24,6.32l4.72-7.13l-1.51-7.38l-12.23,1.03l-10.05-6.16l-6.68,8.96H94.21l-5.14-7.74l-5.62,4.01L72.09,54.79
			l13.45,13.42l-10.43,4.49l-12.23,4.43L48.72,65.81l-10.95,7.45l-5.76,4.16l12.34,15.03l18.85-7.42l20.96,4.69L106,76.98
			l3.72,13.58l-16.34,1.67l11.98,9.41l1.32,21.54l17.37,10.95L127.57,124.01z M131.68,178.49l-2.38-1.86l6-7.64l-14.61-20.71
			L110.46,146l-5.91-23.05l-13.84-9.82l-5.91,3.37l11.49,6.04l2.22,11.88l-8.57,5.94l-8.67-7.32l-10.72-7l-7.06-12.81l-0.77-12.1
			l-9.09-2.86l-5.04,6.68l2.83,13.36l-11.49-1.41l-6.71-3.5l1.38-2.66l6.49,3.34l6.55,0.77l-2.25-10.59l7.13-9.47l13.07,4.11
			l0.87,13.48l6.36,11.56l10.24,6.71l7.06,5.94l5.1-3.53l-1.61-8.54l-15.06-7.93l12.33-7.03l12.39,8.8l-0.93-15.22L87.25,91.26
			l-2.73,1.57l-21.19-4.75l-20.03,7.9L27.84,77.1l8.04-6.32l12.91-8.73L63.36,73.7l10.56-3.82l6.29-2.73L67.79,54.73l13.77-13.74
			l8.25-5.91l5.97,8.99h14.45l7.42-9.95l11.56,7.1l13.9-1.16l2.31,11.24l-6.93,10.53l-12.84-7.22l-16.57,1.67l15.12,10.76
			l-2.63,13.81l-1.96,17.5l12.91,14.22l12.14-7.9l3.02,9.18l11.94,5.39l2.47-18.08l-26.9-5.78l7.32-31.85l20.26-13.77l6.71,8.67
			l2.41,12.71l11.56,7.06l5.27,10.53l-17.53,10.47l17.91,8.93l-3.08,9.79l-11.91,12.2l-28.51,10.66l-16.53-11.98l-3.53,9.89
			l-16.53-10.4l3.88,15.22l9.6,2.12l16.6,23.5L131.68,178.49z"/>
		<path class="st4" d="M130.49,174.87c-1.64,0-2.95,1.32-2.95,2.95s1.28,2.95,2.95,2.95c1.57,0,2.95-1.32,2.95-2.95
			C133.45,176.15,132.13,174.87,130.49,174.87"/>
		<path class="st4" d="M136.98,84.39c-5.55,0-9.98,4.53-9.98,10.05c0,5.55,4.46,10.05,9.98,10.05c5.55,0,9.98-4.53,9.98-10.05
			C146.99,88.89,142.53,84.39,136.98,84.39"/>
		<path class="st3" d="M136.98,85.04c-5.17,0-9.34,4.24-9.34,9.41c0,5.2,4.21,9.41,9.34,9.41s9.34-4.24,9.34-9.41
			C146.35,89.24,142.15,85.04,136.98,85.04z M136.98,105.13c-5.88,0-10.63-4.82-10.63-10.69c0-5.91,4.78-10.69,10.63-10.69
			c5.84,0,10.63,4.82,10.63,10.69C147.64,100.35,142.85,105.13,136.98,105.13z"/>
		<path class="st4" d="M173.26,119.23c-5.27,0-9.57,4.3-9.57,9.66c0,5.33,4.3,9.66,9.57,9.66c5.27,0,9.57-4.3,9.57-9.66
			C182.86,123.53,178.52,119.23,173.26,119.23"/>
		<path class="st3" d="M173.44,119.69c-4.91,0-8.93,4.05-8.93,8.99c0,4.98,4.01,9.02,8.93,9.02s8.93-4.05,8.93-9.02
			C182.4,123.73,178.38,119.69,173.44,119.69z M173.44,138.98c-5.65,0-10.24-4.62-10.24-10.31c0-5.68,4.59-10.31,10.24-10.31
			s10.21,4.62,10.21,10.31C183.68,134.36,179.09,138.98,173.44,138.98z"/>
		<path class="st4" d="M81.69,110.34c-3.69,0-6.77,3.02-6.77,6.77c0,3.76,3.02,6.77,6.77,6.77c3.69,0,6.77-3.02,6.77-6.77
			C88.47,113.32,85.45,110.34,81.69,110.34"/>
		<path class="st3" d="M81.69,110.98c-3.37,0-6.13,2.76-6.13,6.13c0,3.37,2.76,6.13,6.13,6.13c3.37,0,6.13-2.76,6.13-6.13
			C87.82,113.67,85.13,110.98,81.69,110.98z M81.69,124.53c-4.08,0-7.42-3.34-7.42-7.42c0-4.08,3.34-7.42,7.42-7.42
			c4.08,0,7.42,3.34,7.42,7.42C89.11,121.19,85.77,124.53,81.69,124.53z"/>
		<path class="st4" d="M50.2,112.04c-2.47,0-4.53,2.05-4.53,4.53c0,2.54,2.05,4.53,4.53,4.53c2.47,0,4.53-2.05,4.53-4.53
			C54.72,114.03,52.67,112.04,50.2,112.04"/>
		<path class="st3" d="M50.2,112.68c-2.09,0-3.88,1.77-3.88,3.88c0,2.15,1.73,3.88,3.88,3.88c2.09,0,3.88-1.77,3.88-3.88
			C54.08,114.41,52.35,112.68,50.2,112.68z M50.2,121.7c-2.86,0-5.17-2.31-5.17-5.17c0-2.79,2.38-5.17,5.17-5.17
			c2.86,0,5.17,2.31,5.17,5.17C55.37,119.36,53.02,121.7,50.2,121.7z"/>
		<path class="st4" d="M71.77,121.41c-1.99,0-3.56,1.57-3.56,3.56c0,1.99,1.57,3.56,3.56,3.56c1.99,0,3.56-1.57,3.56-3.56
			C75.4,122.98,73.76,121.41,71.77,121.41"/>
		<path class="st3" d="M71.77,122.05c-1.64,0-2.92,1.28-2.92,2.92c0,1.64,1.28,2.92,2.92,2.92c1.64,0,2.92-1.28,2.92-2.92
			c0.03-0.77-0.26-1.48-0.77-2.02C73.38,122.37,72.58,122.05,71.77,122.05z M71.77,129.18c-2.34,0-4.21-1.86-4.21-4.21
			c0-2.34,1.86-4.21,4.21-4.21c1.16,0,2.28,0.48,3.08,1.28c0.77,0.8,1.16,1.83,1.12,2.92C75.98,127.32,74.12,129.18,71.77,129.18z"
			/>
		<path class="st4" d="M82.24,126.07c-3.21,0-5.81,2.6-5.81,5.81c0,3.21,2.6,5.81,5.81,5.81c3.21,0,5.81-2.6,5.81-5.81
			C88.05,128.67,85.45,126.07,82.24,126.07"/>
		<path class="st3" d="M82.24,126.71c-2.86,0-5.17,2.31-5.17,5.17c0,2.86,2.31,5.17,5.17,5.17c2.86,0,5.17-2.31,5.17-5.17
			C87.41,129.02,85.1,126.71,82.24,126.71z M82.24,138.33c-3.56,0-6.45-2.89-6.45-6.45c0-3.56,2.89-6.45,6.45-6.45
			c3.56,0,6.45,2.89,6.45,6.45C88.69,135.44,85.8,138.33,82.24,138.33z"/>
		<path class="st4" d="M143.85,104.49c-1.38,0-2.47,1.09-2.47,2.47c0,1.38,1.09,2.47,2.47,2.47c1.38,0,2.47-1.09,2.47-2.47
			C146.29,105.62,145.2,104.49,143.85,104.49"/>
		<path class="st3" d="M143.85,105.13c-1.03,0-1.83,0.8-1.83,1.83c0,1.03,0.8,1.83,1.83,1.83s1.83-0.8,1.83-1.83
			C145.65,105.94,144.84,105.13,143.85,105.13z M143.85,110.08c-1.7,0-3.11-1.38-3.11-3.11c0-1.7,1.38-3.11,3.11-3.11
			c1.7,0,3.11,1.38,3.11,3.11C146.93,108.7,145.55,110.08,143.85,110.08z"/>
		<path class="st4" d="M89.89,136.3c-1.47,0-2.66,1.18-2.66,2.66c0,1.47,1.16,2.66,2.66,2.66c1.42,0,2.66-1.18,2.66-2.66
			C92.55,137.48,91.31,136.3,89.89,136.3"/>
		<path class="st3" d="M89.89,136.88c-1.16,0-2.08,0.9-2.08,2.08c0,1.16,0.9,2.08,2.08,2.08c1.13,0,2.08-0.95,2.08-2.08
			C91.97,137.83,91.02,136.88,89.89,136.88z M89.89,142.16c-1.82,0-3.24-1.42-3.24-3.24c0-1.82,1.42-3.24,3.24-3.24
			c1.79,0,3.24,1.44,3.24,3.24C93.13,140.72,91.68,142.16,89.89,142.16z"/>
		<path class="st4" d="M128.71,124.25c-1.46,0-2.63,1.17-2.63,2.63c0,1.46,1.14,2.63,2.63,2.63c1.4,0,2.63-1.17,2.63-2.63
			C131.25,125.42,130.11,124.25,128.71,124.25"/>
		<path class="st3" d="M128.71,124.82c-1.14,0-2.05,0.88-2.05,2.05c0,1.14,0.88,2.05,2.05,2.05c1.11,0,2.05-0.94,2.05-2.05
			C130.71,125.74,129.79,124.82,128.71,124.82z M128.71,130.05c-1.8,0-3.2-1.4-3.2-3.2c0-1.8,1.4-3.2,3.2-3.2
			c1.71,0,3.11,1.4,3.2,3.17C131.88,128.62,130.45,130.05,128.71,130.05z"/>
		<path class="st4" d="M160.8,119.16c-1.64,0-2.95,1.32-2.95,2.95c0,1.64,1.28,2.95,2.95,2.95c1.57,0,2.95-1.32,2.95-2.95
			C163.75,120.45,162.44,119.16,160.8,119.16"/>
		<path class="st3" d="M160.8,119.81c-1.28,0-2.31,1-2.31,2.31c0,1.28,1,2.31,2.31,2.31c1.25,0,2.31-1.06,2.31-2.31
			C163.11,120.8,162.08,119.81,160.8,119.81z M160.8,125.68c-2.02,0-3.6-1.57-3.6-3.6c0-2.02,1.57-3.6,3.6-3.6
			c2.02,0,3.6,1.57,3.6,3.6C164.4,124.08,162.79,125.68,160.8,125.68z"/>
		<path class="st4" d="M125.16,134.35c-1.35,0-2.39,1.09-2.39,2.39c0,1.35,1.09,2.39,2.39,2.39c1.35,0,2.39-1.09,2.39-2.39
			C127.55,135.45,126.51,134.35,125.16,134.35"/>
		<path class="st3" d="M125.16,134.93c-1.01,0-1.81,0.81-1.81,1.81c0,1.01,0.81,1.81,1.81,1.81c1.01,0,1.81-0.81,1.81-1.81
			C126.97,135.74,126.16,134.93,125.16,134.93z M125.16,139.71c-1.64,0-2.97-1.32-2.97-2.97s1.32-2.97,2.97-2.97
			c1.64,0,2.97,1.32,2.97,2.97S126.8,139.71,125.16,139.71z"/>
		<path class="st4" d="M146.99,110.59c-2.41,0-4.3,1.93-4.3,4.3c0,2.41,1.93,4.3,4.3,4.3c2.41,0,4.3-1.93,4.3-4.3
			C151.3,112.52,149.37,110.59,146.99,110.59"/>
		<path class="st3" d="M146.99,111.23c-2.05,0-3.66,1.61-3.66,3.66s1.61,3.66,3.66,3.66s3.66-1.61,3.66-3.66
			S149.05,111.23,146.99,111.23z M146.99,119.87c-2.73,0-4.94-2.22-4.94-4.94c0-2.73,2.22-4.94,4.94-4.94
			c2.73,0,4.94,2.22,4.94,4.94C151.94,117.65,149.72,119.87,146.99,119.87z"/>
		<path class="st4" d="M137.2,165.27c-2.05,0-3.76,1.7-3.76,3.76c0,2.05,1.7,3.76,3.76,3.76c2.05,0,3.76-1.7,3.76-3.76
			C140.96,167,139.26,165.27,137.2,165.27"/>
		<path class="st3" d="M137.2,165.91c-1.7,0-3.11,1.44-3.11,3.11c0,1.7,1.44,3.11,3.11,3.11c1.7,0,3.11-1.44,3.11-3.11
			C140.32,167.35,138.9,165.91,137.2,165.91z M137.2,173.45c-2.38,0-4.4-2.02-4.4-4.4s2.02-4.4,4.4-4.4c2.38,0,4.4,2.02,4.4,4.4
			S139.58,173.45,137.2,173.45z"/>
		<path class="st4" d="M104.46,98.49c-1.88,0-3.36,1.54-3.36,3.42c0,1.88,1.48,3.42,3.36,3.42c1.88,0,3.36-1.54,3.36-3.42
			C107.82,100.06,106.34,98.49,104.46,98.49"/>
		<path class="st3" d="M104.46,99.12c-1.51,0-2.75,1.27-2.75,2.81c0,1.54,1.24,2.81,2.75,2.81c1.51,0,2.75-1.27,2.75-2.81
			C107.21,100.36,105.97,99.12,104.46,99.12z M104.46,105.96c-2.18,0-3.96-1.82-3.96-4.02c0-2.21,1.79-4.02,3.96-4.02
			c2.18,0,3.96,1.82,3.96,4.02C108.42,104.14,106.64,105.96,104.46,105.96z"/>
		<path class="st4" d="M40.57,112.29c-1.77,0-3.21,1.44-3.21,3.21c0,1.77,1.44,3.21,3.21,3.21c1.77,0,3.21-1.44,3.21-3.21
			C43.78,113.74,42.33,112.29,40.57,112.29"/>
		<path class="st3" d="M40.57,112.94c-1.41,0-2.57,1.16-2.57,2.57c0,1.41,1.16,2.57,2.57,2.57c1.41,0,2.57-1.16,2.57-2.57
			C43.14,114.09,41.98,112.94,40.57,112.94z M40.57,119.39c-2.12,0-3.85-1.73-3.85-3.85c0-2.12,1.73-3.85,3.85-3.85
			c2.12,0,3.85,1.73,3.85,3.85C44.42,117.66,42.69,119.39,40.57,119.39z"/>
		<path class="st4" d="M64.16,97.33c-1.51,0-2.66,1.22-2.66,2.73c0,1.51,1.22,2.73,2.66,2.73c1.51,0,2.66-1.22,2.66-2.73
			C66.83,98.55,65.67,97.33,64.16,97.33"/>
		<path class="st3" d="M64.16,97.97c-1.12,0-2.02,0.93-2.02,2.09c0,1.12,0.93,2.09,2.02,2.09c1.12,0,2.02-0.93,2.02-2.09
			C66.19,98.87,65.32,97.97,64.16,97.97z M64.16,103.43c-1.8,0-3.31-1.54-3.31-3.37c0-1.86,1.48-3.37,3.31-3.37
			c1.86,0,3.31,1.48,3.31,3.37C67.5,101.92,65.99,103.43,64.16,103.43z"/>
		<path class="st4" d="M63.87,83.9c-1.34,0-2.47,1.07-2.47,2.47c0,1.4,1.07,2.47,2.47,2.47c1.34,0,2.47-1.07,2.47-2.47
			C66.37,84.98,65.27,83.9,63.87,83.9"/>
		<path class="st3" d="M63.86,84.46c-1.04,0-1.88,0.83-1.88,1.88c0,1.07,0.8,1.88,1.88,1.88c1.04,0,1.88-0.83,1.88-1.88
			C65.77,85.27,64.94,84.46,63.86,84.46z M63.86,89.41c-1.73,0-3.07-1.34-3.07-3.07c0-1.7,1.37-3.07,3.07-3.07
			c1.73,0,3.07,1.34,3.07,3.07C66.96,88.04,65.56,89.41,63.86,89.41z"/>
		<path class="st4" d="M74.44,68.5c-1.51,0-2.73,1.22-2.73,2.73c0,1.51,1.22,2.73,2.73,2.73c1.51,0,2.73-1.22,2.73-2.73
			C77.17,69.72,75.95,68.5,74.44,68.5"/>
		<path class="st3" d="M74.44,69.14c-1.16,0-2.09,0.93-2.09,2.09c0,1.16,0.93,2.09,2.09,2.09c1.16,0,2.09-0.93,2.09-2.09
			C76.52,70.08,75.59,69.14,74.44,69.14z M74.44,74.63c-1.86,0-3.37-1.51-3.37-3.37c0-1.86,1.51-3.37,3.37-3.37
			c1.86,0,3.37,1.51,3.37,3.37C77.81,73.13,76.3,74.63,74.44,74.63z"/>
		<path class="st4" d="M89.43,34.57c-1.44,0-2.66,1.16-2.66,2.66c0,1.51,1.16,2.66,2.66,2.66c1.44,0,2.66-1.16,2.66-2.66
			C92.09,35.72,90.87,34.57,89.43,34.57"/>
		<path class="st3" d="M89.43,35.21c-1.12,0-2.02,0.9-2.02,2.02c0,1.16,0.87,2.02,2.02,2.02c1.12,0,2.02-0.9,2.02-2.02
			C91.45,36.11,90.55,35.21,89.43,35.21z M89.43,40.54c-1.86,0-3.31-1.44-3.31-3.31c0-1.83,1.48-3.31,3.31-3.31
			c1.83,0,3.31,1.48,3.31,3.31C92.74,39.06,91.26,40.54,89.43,40.54z"/>
		<path class="st4" d="M29.69,75.13c-1.09,0-1.99,0.9-1.99,1.99c0,1.09,0.9,1.99,1.99,1.99c1.09,0,1.99-0.9,1.99-1.99
			C31.65,76,30.78,75.13,29.69,75.13"/>
		<path class="st3" d="M29.66,75.77c-0.74,0-1.35,0.61-1.35,1.35c0,0.74,0.61,1.35,1.35,1.35c0.74,0,1.35-0.61,1.35-1.35
			C30.98,76.35,30.4,75.77,29.66,75.77z M29.66,79.72c-1.44,0-2.63-1.19-2.63-2.63c0-1.44,1.19-2.63,2.63-2.63
			c1.44,0,2.63,1.19,2.63,2.63C32.29,78.53,31.1,79.72,29.66,79.72z"/>
		<path class="st4" d="M33.46,110.43c-1.16,0-2.12,0.96-2.12,2.12c0,1.16,0.96,2.12,2.12,2.12s2.12-0.96,2.12-2.12
			C35.57,111.39,34.61,110.43,33.46,110.43"/>
		<path class="st3" d="M33.46,111.07c-0.8,0-1.48,0.67-1.48,1.48c0,0.8,0.67,1.48,1.48,1.48c0.8,0,1.48-0.67,1.48-1.48
			C34.93,111.71,34.29,111.07,33.46,111.07z M33.46,115.31c-1.51,0-2.76-1.25-2.76-2.76c0-1.51,1.25-2.76,2.76-2.76
			c1.51,0,2.76,1.25,2.76,2.76C36.22,114.06,35,115.31,33.46,115.31z"/>
		<path class="st4" d="M90.46,109.24c-1.16,0-2.12,0.96-2.12,2.12c0,1.16,0.96,2.12,2.12,2.12c1.16,0,2.12-0.96,2.12-2.12
			C92.58,110.17,91.68,109.24,90.46,109.24"/>
		<path class="st3" d="M90.46,109.89c-0.8,0-1.48,0.67-1.48,1.48s0.67,1.48,1.48,1.48s1.48-0.67,1.48-1.48
			C91.93,110.5,91.29,109.89,90.46,109.89z M90.46,114.12c-1.51,0-2.76-1.25-2.76-2.76c0-1.51,1.25-2.76,2.76-2.76
			c1.54,0,2.76,1.22,2.76,2.76C93.22,112.87,91.97,114.12,90.46,114.12z"/>
		<path class="st4" d="M122.69,64.46c-1.44,0-2.66,1.16-2.66,2.66c0,1.51,1.16,2.66,2.66,2.66c1.44,0,2.66-1.16,2.66-2.66
			C125.36,65.64,124.2,64.46,122.69,64.46"/>
		<path class="st3" d="M122.69,65.1c-1.12,0-2.02,0.9-2.02,2.02c0,1.16,0.87,2.02,2.02,2.02c1.12,0,2.02-0.9,2.02-2.02
			C124.71,66,123.85,65.1,122.69,65.1z M122.69,70.46c-1.86,0-3.31-1.44-3.31-3.31c0-1.83,1.48-3.31,3.31-3.31
			c1.86,0,3.31,1.44,3.31,3.31C126,68.95,124.52,70.46,122.69,70.46z"/>
		<path class="st4" d="M126.19,50.43c-1.44,0-2.66,1.16-2.66,2.66c0,1.51,1.16,2.66,2.66,2.66c1.44,0,2.66-1.16,2.66-2.66
			C128.86,51.62,127.7,50.43,126.19,50.43"/>
		<path class="st3" d="M126.19,51.07c-1.12,0-2.02,0.9-2.02,2.02c0,1.16,0.87,2.02,2.02,2.02c1.12,0,2.02-0.9,2.02-2.02
			C128.21,51.97,127.35,51.07,126.19,51.07z M126.19,56.43c-1.86,0-3.31-1.44-3.31-3.31c0-1.83,1.48-3.31,3.31-3.31
			c1.86,0,3.31,1.44,3.31,3.31C129.5,54.92,127.99,56.43,126.19,56.43z"/>
		<path class="st4" d="M162.44,49.14c-1.44,0-2.66,1.16-2.66,2.66c0,1.51,1.16,2.66,2.66,2.66c1.44,0,2.66-1.16,2.66-2.66
			C165.13,50.3,163.95,49.14,162.44,49.14"/>
		<path class="st3" d="M162.44,49.79c-1.12,0-2.02,0.9-2.02,2.02c0,1.16,0.87,2.02,2.02,2.02c1.12,0,2.02-0.9,2.02-2.02
			C164.49,50.65,163.59,49.79,162.44,49.79z M162.44,55.11c-1.86,0-3.31-1.44-3.31-3.31c0-1.83,1.48-3.31,3.31-3.31
			c1.86,0,3.31,1.44,3.31,3.31C165.78,53.64,164.27,55.11,162.44,55.11z"/>
		<path class="st4" d="M186.74,85.07c-1.7,0-3.08,1.38-3.08,3.08c0,1.7,1.38,3.08,3.08,3.08s3.08-1.38,3.08-3.08
			C189.82,86.51,188.44,85.07,186.74,85.07"/>
		<path class="st3" d="M186.74,85.71c-1.35,0-2.44,1.09-2.44,2.44c0,1.38,1.06,2.44,2.44,2.44c1.38,0,2.44-1.06,2.44-2.44
			C189.18,86.83,188.06,85.71,186.74,85.71z M186.74,91.87c-2.05,0-3.72-1.67-3.72-3.72c0-2.05,1.67-3.72,3.72-3.72
			c2.02,0,3.72,1.7,3.72,3.72C190.46,90.21,188.79,91.87,186.74,91.87z"/>
		<path class="st4" d="M187.29,106.29c-1.44,0-2.6,1.16-2.6,2.6c0,1.44,1.16,2.6,2.6,2.6c1.44,0,2.6-1.16,2.6-2.6
			C189.82,107.45,188.67,106.29,187.29,106.29"/>
		<path class="st3" d="M187.29,106.93c-1.09,0-1.96,0.87-1.96,1.96s0.87,1.96,1.96,1.96c1.09,0,1.96-0.87,1.96-1.96
			C189.21,107.83,188.31,106.93,187.29,106.93z M187.29,112.13c-1.8,0-3.24-1.44-3.24-3.24c0-1.8,1.44-3.24,3.24-3.24
			c1.7,0,3.15,1.44,3.24,3.21C190.53,110.69,189.08,112.13,187.29,112.13z"/>
		<path class="st4" d="M154.64,116.21c-1.38,0-2.47,1.09-2.47,2.47c0,1.38,1.09,2.47,2.47,2.47c1.38,0,2.47-1.09,2.47-2.47
			C157.11,117.3,156.02,116.21,154.64,116.21"/>
		<path class="st3" d="M154.64,116.85c-1.03,0-1.83,0.8-1.83,1.83c0,1.03,0.8,1.83,1.83,1.83c1.03,0,1.83-0.8,1.83-1.83
			C156.47,117.65,155.66,116.85,154.64,116.85z M154.64,121.76c-1.7,0-3.11-1.38-3.11-3.11c0-1.7,1.38-3.11,3.11-3.11
			c1.7,0,3.11,1.38,3.11,3.11C157.75,120.38,156.37,121.76,154.64,121.76z"/>
		<path class="st4" d="M108.12,85.29c-2.18,0-3.92,1.77-3.92,3.92c0,2.18,1.77,3.88,3.92,3.88c2.12,0,3.92-1.77,3.92-3.88
			C112.04,87.05,110.31,85.29,108.12,85.29"/>
		<path class="st3" d="M108.12,85.93c-1.8,0-3.24,1.48-3.24,3.27c0,1.8,1.48,3.24,3.24,3.24c1.77,0,3.24-1.48,3.24-3.24
			C111.4,87.37,109.92,85.93,108.12,85.93z M108.12,93.73c-2.5,0-4.56-2.02-4.56-4.53c0-2.5,2.05-4.56,4.56-4.56
			c2.5,0,4.56,2.02,4.56,4.56C112.68,91.64,110.6,93.73,108.12,93.73z"/>
		<path class="st4" d="M182.31,74.31c-2.73,0-4.91,2.18-4.91,4.91c0,2.73,2.18,4.94,4.91,4.94c2.73,0,4.91-2.18,4.91-4.94
			C187.29,76.53,185.04,74.31,182.31,74.31"/>
		<path class="st3" d="M182.31,74.96c-2.38,0-4.27,1.93-4.27,4.27c0,2.41,1.89,4.27,4.27,4.27s4.27-1.93,4.27-4.27
			c0.03-1.12-0.39-2.18-1.16-2.99C184.59,75.44,183.47,74.96,182.31,74.96z M182.31,84.81c-3.08,0-5.55-2.5-5.55-5.59
			c0-3.08,2.5-5.55,5.55-5.55c1.51,0,2.99,0.61,4.05,1.7c1.03,1.06,1.57,2.44,1.54,3.88C187.86,82.31,185.36,84.81,182.31,84.81z"/>
		<path class="st4" d="M184.27,112.78c-2.41,0-4.3,1.93-4.3,4.3c0,2.41,1.93,4.3,4.3,4.3c2.41,0,4.3-1.93,4.3-4.3
			C188.6,114.7,186.68,112.78,184.27,112.78"/>
		<path class="st3" d="M184.27,113.42c-2.05,0-3.66,1.61-3.66,3.66s1.61,3.66,3.66,3.66s3.66-1.61,3.66-3.66
			C187.96,115.05,186.35,113.42,184.27,113.42z M184.27,122.05c-2.73,0-4.94-2.22-4.94-4.94c0-2.73,2.22-4.94,4.94-4.94
			c2.73,0,4.94,2.22,4.94,4.94C189.24,119.84,187.03,122.05,184.27,122.05z"/>
		<path class="st4" d="M118.04,32.22c-2.18,0-3.92,1.77-3.92,3.92c0,2.18,1.77,3.88,3.92,3.88c2.12,0,3.92-1.77,3.92-3.88
			S120.15,32.22,118.04,32.22"/>
		<path class="st3" d="M118.04,32.87c-1.8,0-3.24,1.48-3.24,3.27s1.48,3.24,3.24,3.24c1.77,0,3.24-1.48,3.24-3.24
			C121.28,34.37,119.8,32.87,118.04,32.87z M118.04,40.67c-2.5,0-4.56-2.02-4.56-4.56c0-2.5,2.05-4.56,4.56-4.56
			c2.47,0,4.56,2.09,4.56,4.56C122.59,38.61,120.51,40.67,118.04,40.67z"/>
		<path class="st4" d="M141.92,37.78c-2.18,0-3.92,1.77-3.92,3.88c0,2.18,1.77,3.92,3.92,3.92c2.12,0,3.92-1.77,3.92-3.92
			C145.81,39.54,144.1,37.78,141.92,37.78"/>
		<path class="st3" d="M141.92,38.42c-1.8,0-3.24,1.48-3.24,3.24c0,1.77,1.48,3.24,3.24,3.24c1.77,0,3.24-1.48,3.24-3.24
			C145.16,39.9,143.72,38.42,141.92,38.42z M141.92,46.22c-2.5,0-4.56-2.02-4.56-4.56c0-2.54,2.05-4.56,4.56-4.56
			s4.56,2.02,4.56,4.56C146.48,44.13,144.39,46.22,141.92,46.22z"/>
		<path class="st4" d="M168.06,54.76c-2.41,0-4.3,1.93-4.3,4.3c0,2.41,1.93,4.3,4.3,4.3c2.41,0,4.3-1.93,4.3-4.3
			C172.39,56.66,170.46,54.76,168.06,54.76"/>
		<path class="st3" d="M168.06,55.4c-2.05,0-3.66,1.61-3.66,3.66c0,2.02,1.64,3.66,3.66,3.66s3.66-1.64,3.66-3.66
			C171.75,57.01,170.11,55.4,168.06,55.4z M168.06,64.01c-2.73,0-4.94-2.22-4.94-4.94c0-2.73,2.22-4.94,4.94-4.94
			c2.73,0,4.94,2.22,4.94,4.94C173.03,61.79,170.78,64.01,168.06,64.01z"/>
		<path class="st4" d="M170.53,65.16c-3.76,0-6.84,3.08-6.84,6.84c0,3.82,3.08,6.84,6.84,6.84c3.76,0,6.84-3.08,6.84-6.84
			C177.37,68.25,174.28,65.16,170.53,65.16"/>
		<path class="st3" d="M170.53,65.81c-3.4,0-6.2,2.79-6.2,6.2c0,3.4,2.79,6.2,6.2,6.2c3.4,0,6.2-2.79,6.2-6.2
			C176.72,68.57,173.96,65.81,170.53,65.81z M170.53,79.48c-4.14,0-7.48-3.37-7.48-7.48c0-4.14,3.37-7.48,7.48-7.48
			c4.14,0,7.48,3.37,7.48,7.48S174.67,79.48,170.53,79.48z"/>
		<path class="st4" d="M129.11,36.14c-3.63,0-6.58,2.95-6.58,6.58c0,3.63,2.95,6.58,6.58,6.58s6.58-2.95,6.58-6.58
			C135.69,39.06,132.74,36.14,129.11,36.14"/>
		<path class="st3" d="M129.11,36.78c-3.27,0-5.94,2.66-5.94,5.94c0,3.27,2.66,5.94,5.94,5.94s5.91-2.66,5.91-5.94
			C135.05,39.45,132.39,36.78,129.11,36.78z M129.11,49.91c-3.98,0-7.22-3.24-7.22-7.22c0-3.98,3.24-7.22,7.22-7.22
			c3.98,0,7.22,3.24,7.22,7.22C136.34,46.67,133.09,49.91,129.11,49.91z"/>
		<path class="st4" d="M105.37,74.97c-2.18,0-3.92,1.77-3.92,3.92c0,2.18,1.77,3.88,3.92,3.88c2.12,0,3.92-1.77,3.92-3.88
			C109.25,76.73,107.49,74.97,105.37,74.97"/>
		<path class="st3" d="M105.37,75.61c-1.8,0-3.24,1.48-3.24,3.24c0,1.8,1.48,3.24,3.24,3.24c1.77,0,3.24-1.48,3.24-3.24
			C108.61,77.09,107.13,75.61,105.37,75.61z M105.37,83.41c-2.5,0-4.56-2.02-4.56-4.56c0-2.5,2.05-4.56,4.56-4.56
			c2.47,0,4.56,2.09,4.56,4.56C109.89,81.32,107.84,83.41,105.37,83.41z"/>
		<path class="st4" d="M82.92,63.43c-2.18,0-3.92,1.77-3.92,3.92c0,2.18,1.77,3.88,3.92,3.88c2.12,0,3.92-1.77,3.92-3.88
			C86.84,65.23,85.04,63.43,82.92,63.43"/>
		<path class="st3" d="M82.92,64.07c-1.8,0-3.24,1.48-3.24,3.27c0,1.8,1.48,3.24,3.24,3.24c1.77,0,3.24-1.48,3.24-3.24
			C86.19,65.58,84.69,64.07,82.92,64.07z M82.92,71.87c-2.5,0-4.56-2.02-4.56-4.56c0-2.5,2.05-4.56,4.56-4.56
			c2.47,0,4.56,2.09,4.56,4.56C87.48,69.79,85.39,71.87,82.92,71.87z"/>
		<path class="st4" d="M82.46,38.32c-2.18,0-3.92,1.77-3.92,3.92c0,2.18,1.77,3.88,3.92,3.88c2.12,0,3.92-1.77,3.92-3.88
			C86.35,40.12,84.58,38.32,82.46,38.32"/>
		<path class="st3" d="M82.46,38.97c-1.8,0-3.24,1.48-3.24,3.27s1.48,3.24,3.24,3.24s3.24-1.48,3.24-3.24
			C85.71,40.47,84.23,38.97,82.46,38.97z M82.46,46.77c-2.5,0-4.56-2.02-4.56-4.56c0-2.5,2.05-4.56,4.56-4.56
			c2.47,0,4.56,2.09,4.56,4.56C86.99,44.68,84.9,46.77,82.46,46.77z"/>
		<path class="st4" d="M36.75,67.79c-2.18,0-3.92,1.77-3.92,3.92c0,2.18,1.77,3.88,3.92,3.88c2.12,0,3.92-1.77,3.92-3.88
			C40.63,69.59,38.87,67.79,36.75,67.79"/>
		<path class="st3" d="M36.69,68.56c-1.71,0-3.09,1.41-3.09,3.09c0,1.68,1.41,3.09,3.09,3.09c1.68,0,3.09-1.41,3.09-3.09
			C39.77,69.96,38.37,68.56,36.69,68.56z M36.69,75.98c-2.38,0-4.34-1.92-4.34-4.34c0-2.41,1.96-4.34,4.34-4.34
			c2.35,0,4.34,1.99,4.34,4.34C41.03,74,39.01,75.98,36.69,75.98z"/>
		<path class="st4" d="M63.07,68.63c-3.76,0-6.77,3.08-6.77,6.77c0,3.76,3.02,6.77,6.77,6.77c3.76,0,6.77-3.08,6.77-6.77
			C69.91,71.65,66.83,68.63,63.07,68.63"/>
		<path class="st3" d="M63.07,69.27c-3.37,0-6.13,2.76-6.13,6.13c0,3.37,2.76,6.13,6.13,6.13c3.37,0,6.13-2.76,6.13-6.13
			c0.03-1.61-0.58-3.15-1.7-4.3C66.35,69.95,64.77,69.27,63.07,69.27z M63.07,82.85c-4.08,0-7.42-3.34-7.42-7.42
			c0-4.08,3.34-7.42,7.42-7.42c2.02,0,3.95,0.8,5.36,2.22c1.38,1.41,2.12,3.24,2.09,5.2C70.49,79.51,67.18,82.85,63.07,82.85z"/>
		<path class="st4" d="M48.72,54.76c-5.01,0-9.02,4.11-9.02,9.18c0,5.07,4.05,9.18,9.02,9.18c5.01,0,9.02-4.11,9.02-9.18
			C57.74,58.87,53.7,54.76,48.72,54.76"/>
		<path class="st3" d="M48.72,55.4c-4.62,0-8.38,3.82-8.38,8.54c0,4.69,3.76,8.54,8.38,8.54s8.38-3.82,8.38-8.54
			C57.1,59.22,53.34,55.4,48.72,55.4z M48.72,73.74c-5.33,0-9.66-4.4-9.66-9.82c0-5.43,4.33-9.82,9.66-9.82c5.33,0,9.7,4.4,9.7,9.82
			C58.38,69.34,54.05,73.74,48.72,73.74z"/>
		<path class="st4" d="M117.36,91.1c-4.46,0-8.15,3.69-8.15,8.22c0,4.53,3.63,8.22,8.15,8.22c4.46,0,8.09-3.69,8.09-8.22
			C125.48,94.8,121.86,91.1,117.36,91.1"/>
		<path class="st3" d="M117.36,91.75c-4.14,0-7.51,3.4-7.51,7.58c0,4.17,3.37,7.58,7.51,7.58c4.11,0,7.42-3.4,7.42-7.58
			c0.03-2.02-0.74-3.92-2.15-5.36C121.25,92.52,119.35,91.75,117.36,91.75z M117.36,108.15c-4.85,0-8.8-3.98-8.8-8.86
			c0-4.88,3.95-8.86,8.8-8.86c2.34,0,4.56,0.93,6.2,2.6c1.67,1.67,2.54,3.92,2.5,6.26C126.06,104.2,122.15,108.15,117.36,108.15z"/>
		<path class="st4" d="M120.09,71.33c-5.01,0-9.12,4.11-9.12,9.25c0,5.07,4.05,9.25,9.12,9.25c5.01,0,9.02-4.11,9.02-9.25
			C129.11,75.5,125.1,71.33,120.09,71.33"/>
		<path class="st3" d="M120.09,71.97c-4.66,0-8.44,3.85-8.44,8.6c0,4.75,3.79,8.6,8.44,8.6c4.62,0,8.38-3.85,8.38-8.6
			C128.47,75.82,124.71,71.97,120.09,71.97z M120.09,90.43c-5.36,0-9.76-4.43-9.76-9.89c0-5.46,4.37-9.89,9.76-9.89
			c5.33,0,9.7,4.43,9.7,9.89C129.75,86,125.42,90.43,120.09,90.43z"/>
		<path class="st4" d="M69.91,43.27c-6.52,0-11.78,5.33-11.78,11.98c0,6.65,5.27,11.98,11.78,11.98c6.52,0,11.78-5.33,11.78-11.98
			C81.69,48.6,76.43,43.27,69.91,43.27"/>
		<path class="st3" d="M69.91,43.91c-6.13,0-11.14,5.07-11.14,11.33s4.98,11.33,11.14,11.33c6.16,0,11.14-5.07,11.14-11.33
			S76.07,43.91,69.91,43.91z M69.91,67.86c-6.84,0-12.42-5.65-12.42-12.62c0-6.97,5.55-12.62,12.42-12.62
			c6.84,0,12.42,5.65,12.42,12.62C82.33,62.21,76.78,67.86,69.91,67.86z"/>
		<path class="st4" d="M121.6,140.1c-3.69,0-6.71,3.08-6.71,6.84c0,3.76,3.02,6.77,6.71,6.77c3.69,0,6.71-3.08,6.71-6.77
			C128.31,143.18,125.29,140.1,121.6,140.1"/>
		<path class="st3" d="M121.6,140.74c-3.34,0-6.07,2.79-6.07,6.2c0,3.37,2.73,6.13,6.07,6.13c3.34,0,6.07-2.76,6.07-6.13
			C127.67,143.53,124.94,140.74,121.6,140.74z M121.6,154.35c-4.05,0-7.35-3.34-7.35-7.42c0-4.14,3.31-7.48,7.35-7.48
			c4.05,0,7.35,3.37,7.35,7.48C128.95,151.04,125.64,154.35,121.6,154.35z"/>
		<path class="st4" d="M130.07,152.42c-3.56,0-6.42,2.95-6.42,6.58c0,3.63,2.86,6.58,6.42,6.58s6.42-2.95,6.42-6.58
			C136.53,155.35,133.64,152.42,130.07,152.42"/>
		<path class="st3" d="M130.07,153.07c-3.18,0-5.78,2.66-5.78,5.94s2.6,5.94,5.78,5.94c3.18,0,5.78-2.66,5.78-5.94
			C135.85,155.7,133.29,153.07,130.07,153.07z M130.07,166.2c-3.92,0-7.06-3.24-7.06-7.22c0-3.98,3.18-7.22,7.06-7.22
			c3.92,0,7.06,3.24,7.06,7.22C137.17,162.95,133.99,166.2,130.07,166.2z"/>
		<path class="st4" d="M132.26,106.16c-4.59,0-8.28,3.69-8.28,8.35c0,4.59,3.69,8.35,8.28,8.35s8.28-3.69,8.28-8.35
			C140.54,109.85,136.85,106.16,132.26,106.16"/>
		<path class="st3" d="M132.26,106.8c-4.21,0-7.64,3.47-7.64,7.71c0,4.24,3.44,7.71,7.64,7.71c4.21,0,7.64-3.47,7.64-7.71
			C139.9,110.24,136.5,106.8,132.26,106.8z M132.26,123.5c-4.91,0-8.93-4.05-8.93-8.99c0-4.94,4.01-8.99,8.93-8.99
			c4.91,0,8.93,4.05,8.93,8.99C141.18,119.45,137.2,123.5,132.26,123.5z"/>
		<path class="st4" d="M65,104.59c-4.53,0-8.22,3.69-8.22,8.22c0,4.59,3.69,8.22,8.22,8.22c4.53,0,8.22-3.69,8.22-8.22
			C73.22,108.28,69.53,104.59,65,104.59"/>
		<path class="st3" d="M65,105.23c-4.17,0-7.58,3.4-7.58,7.58c0,4.17,3.4,7.58,7.58,7.58c4.17,0,7.58-3.4,7.58-7.58
			C72.58,108.6,69.17,105.23,65,105.23z M65,121.64c-4.88,0-8.86-3.98-8.86-8.86c0-4.88,3.98-8.86,8.86-8.86
			c4.88,0,8.86,3.98,8.86,8.86C73.86,117.65,69.88,121.64,65,121.64z"/>
		<path class="st3" d="M111.88,143.83c-0.7,0-1.28,0.59-1.28,1.28c0,0.7,0.59,1.28,1.28,1.28c0.7,0,1.28-0.59,1.28-1.28
			C113.19,144.42,112.61,143.83,111.88,143.83z M111.88,147.51c-1.31,0-2.4-1.09-2.4-2.4c0-1.31,1.09-2.4,2.4-2.4
			c1.34,0,2.4,1.09,2.4,2.4C114.28,146.43,113.22,147.51,111.88,147.51z"/>
		<path class="st4" d="M111.81,143.84c-0.75,0-1.37,0.62-1.37,1.37c0,0.75,0.62,1.37,1.37,1.37c0.75,0,1.37-0.62,1.37-1.37
			C113.18,144.44,112.6,143.84,111.81,143.84"/>
		<path class="st3" d="M130.49,175.51c-1.28,0-2.31,1-2.31,2.31c0,1.28,1,2.31,2.31,2.31c1.25,0,2.31-1.06,2.31-2.31
			C132.8,176.5,131.78,175.51,130.49,175.51z M130.49,181.38c-2.02,0-3.6-1.57-3.6-3.6c0-2.02,1.57-3.6,3.6-3.6
			c2.02,0,3.6,1.57,3.6,3.6C134.09,179.78,132.48,181.38,130.49,181.38z"/>
		<g>
			<circle class="st4" cx="103.42" cy="55" r="17.67"/>
			<path class="st5" d="M103.42,73.33c-10.11,0-18.33-8.22-18.33-18.33s8.22-18.33,18.33-18.33c10.11,0,18.33,8.22,18.33,18.33
				S113.53,73.33,103.42,73.33z M103.42,38c-9.37,0-17,7.63-17,17s7.63,17,17,17s17-7.63,17-17S112.8,38,103.42,38z"/>
		</g>
		<g>
			<circle class="st4" cx="85.01" cy="90.28" r="17.67"/>
			<path class="st6" d="M85.01,108.61c-10.11,0-18.33-8.22-18.33-18.33s8.22-18.33,18.33-18.33s18.33,8.22,18.33,18.33
				S95.11,108.61,85.01,108.61z M85.01,73.28c-9.37,0-17,7.63-17,17s7.63,17,17,17s17-7.63,17-17S94.38,73.28,85.01,73.28z"/>
		</g>
		<g>
			<circle class="st4" cx="43.26" cy="93.56" r="17.67"/>
			<path class="st7" d="M43.26,111.89c-10.11,0-18.33-8.22-18.33-18.33s8.22-18.33,18.33-18.33s18.33,8.22,18.33,18.33
				S53.37,111.89,43.26,111.89z M43.26,76.56c-9.37,0-17,7.63-17,17s7.63,17,17,17s17-7.63,17-17S52.64,76.56,43.26,76.56z"/>
		</g>
		<g>
			<circle class="st4" cx="107.07" cy="124.55" r="17.67"/>
			<path class="st8" d="M107.07,142.88c-10.11,0-18.33-8.22-18.33-18.33s8.22-18.33,18.33-18.33c10.11,0,18.33,8.22,18.33,18.33
				S117.17,142.88,107.07,142.88z M107.07,107.55c-9.38,0-17,7.63-17,17s7.63,17,17,17c9.37,0,17-7.63,17-17
				S116.44,107.55,107.07,107.55z"/>
		</g>
		<g>
			<circle class="st4" cx="167.05" cy="100.49" r="17.67"/>
			<path class="st9" d="M167.05,118.82c-10.11,0-18.33-8.22-18.33-18.33s8.22-18.33,18.33-18.33c10.11,0,18.33,8.22,18.33,18.33
				S177.15,118.82,167.05,118.82z M167.05,83.48c-9.37,0-17,7.63-17,17s7.63,17,17,17s17-7.63,17-17S176.42,83.48,167.05,83.48z"/>
		</g>
		<g>
			<circle class="st4" cx="144.44" cy="66.03" r="17.67"/>
			<path class="st10" d="M144.44,84.36c-10.11,0-18.33-8.22-18.33-18.33s8.22-18.33,18.33-18.33c10.11,0,18.33,8.22,18.33,18.33
				S154.55,84.36,144.44,84.36z M144.44,49.03c-9.37,0-17,7.63-17,17s7.63,17,17,17c9.37,0,17-7.63,17-17S153.81,49.03,144.44,49.03
				z"/>
		</g>
		<g>
			<circle class="st4" cx="146.81" cy="139.5" r="17.67"/>
			<path class="st11" d="M146.81,157.83c-10.11,0-18.33-8.22-18.33-18.33s8.22-18.33,18.33-18.33s18.33,8.22,18.33,18.33
				S156.92,157.83,146.81,157.83z M146.81,122.5c-9.37,0-17,7.63-17,17c0,9.37,7.63,17,17,17c9.37,0,17-7.63,17-17
				C163.81,130.12,156.18,122.5,146.81,122.5z"/>
		</g>
		<g>
			<path class="st12" d="M90.41,52.6l0.43,0.31c-0.29,0.48-0.78,0.79-1.43,0.79c-1,0-1.69-0.69-1.69-1.72
				c0-0.96,0.74-1.73,1.73-1.73c0.63,0,1.09,0.27,1.38,0.76l-0.44,0.33c-0.26-0.41-0.56-0.58-0.95-0.58c-0.64,0-1.09,0.52-1.09,1.21
				c0,0.74,0.48,1.22,1.08,1.22C89.83,53.18,90.17,52.98,90.41,52.6z"/>
			<path class="st12" d="M91.07,52.44c0-0.68,0.53-1.24,1.26-1.24c0.71,0,1.24,0.55,1.24,1.24c0,0.68-0.53,1.24-1.25,1.24
				C91.6,53.69,91.07,53.14,91.07,52.44z M92.98,52.45c0-0.46-0.3-0.77-0.66-0.77c-0.38,0-0.66,0.31-0.66,0.77
				c0,0.46,0.3,0.77,0.66,0.77C92.71,53.22,92.98,52.91,92.98,52.45z"/>
			<path class="st12" d="M94.42,51.7c0.17-0.31,0.45-0.47,0.78-0.47c0.37,0,0.63,0.18,0.76,0.47c0.18-0.31,0.49-0.47,0.85-0.47
				c0.56,0,0.86,0.41,0.86,0.97v1.41h-0.58v-1.35c0-0.33-0.16-0.56-0.47-0.56c-0.34,0-0.57,0.31-0.57,0.75v1.16h-0.58v-1.35
				c0-0.33-0.16-0.56-0.47-0.56c-0.33,0-0.56,0.31-0.56,0.75v1.16h-0.58v-2.32h0.55V51.7z"/>
			<path class="st12" d="M98.65,53.23v1.36h-0.58v-3.31h0.55v0.4c0.2-0.29,0.5-0.46,0.85-0.46c0.56,0,1.07,0.46,1.07,1.2
				c0,0.73-0.52,1.23-1.1,1.23C99.11,53.67,98.83,53.51,98.65,53.23z M99.31,53.19c0.38,0,0.66-0.27,0.66-0.75
				c0-0.47-0.29-0.74-0.65-0.74c-0.35,0-0.68,0.32-0.68,0.75C98.63,52.88,98.95,53.19,99.31,53.19z"/>
			<path class="st12" d="M102.51,53.19c-0.18,0.31-0.48,0.48-0.82,0.48c-0.54,0-0.86-0.4-0.86-0.95v-1.43h0.58v1.38
				c0,0.31,0.17,0.53,0.48,0.53c0.35,0,0.6-0.3,0.6-0.74v-1.16h0.58v2.32h-0.56V53.19z"/>
			<path class="st12" d="M103.69,51.75h-0.42v-0.46h0.43v-0.66h0.56v0.66h0.64v0.46h-0.64v0.98c0,0.31,0.14,0.42,0.39,0.42h0.24
				v0.46h-0.34c-0.6,0-0.87-0.24-0.87-0.83V51.75z"/>
			<path class="st12" d="M106.71,53.16c-0.21,0.35-0.51,0.5-0.89,0.5c-0.46,0-0.78-0.29-0.78-0.7c0-0.43,0.33-0.72,1.03-0.72h0.63
				V52.2c0-0.36-0.2-0.54-0.52-0.54c-0.21,0-0.46,0.09-0.72,0.27l-0.2-0.38c0.27-0.21,0.6-0.33,1-0.33c0.63,0,1,0.35,1,1.02v1.38
				h-0.53V53.16z M105.59,52.94c0,0.19,0.14,0.33,0.41,0.33c0.35,0,0.7-0.28,0.7-0.69h-0.6C105.73,52.58,105.59,52.73,105.59,52.94z
				"/>
			<path class="st12" d="M107.81,51.75h-0.42v-0.46h0.43v-0.66h0.56v0.66h0.64v0.46h-0.64v0.98c0,0.31,0.14,0.42,0.39,0.42h0.24
				v0.46h-0.34c-0.6,0-0.87-0.24-0.87-0.83V51.75z"/>
			<path class="st12" d="M109.93,50.83h-0.63v-0.57h0.63V50.83z M109.9,51.29v2.32h-0.58v-2.32H109.9z"/>
			<path class="st12" d="M110.22,52.44c0-0.68,0.53-1.24,1.26-1.24c0.71,0,1.24,0.55,1.24,1.24c0,0.68-0.53,1.24-1.25,1.24
				C110.75,53.69,110.22,53.14,110.22,52.44z M112.13,52.45c0-0.46-0.3-0.77-0.66-0.77c-0.38,0-0.66,0.31-0.66,0.77
				c0,0.46,0.3,0.77,0.66,0.77C111.86,53.22,112.13,52.91,112.13,52.45z"/>
			<path class="st12" d="M113.57,51.71c0.18-0.31,0.47-0.48,0.82-0.48c0.54,0,0.86,0.39,0.86,0.95v1.43h-0.58v-1.38
				c0-0.32-0.17-0.53-0.48-0.53c-0.35,0-0.59,0.31-0.59,0.75v1.16h-0.58v-2.32h0.55V51.71z"/>
			<path class="st12" d="M117.15,53.16c-0.21,0.35-0.51,0.5-0.89,0.5c-0.46,0-0.78-0.29-0.78-0.7c0-0.43,0.33-0.72,1.02-0.72h0.63
				V52.2c0-0.36-0.2-0.54-0.52-0.54c-0.21,0-0.46,0.09-0.72,0.27l-0.2-0.38c0.27-0.21,0.6-0.33,1-0.33c0.63,0,1,0.35,1,1.02v1.38
				h-0.53V53.16z M116.02,52.94c0,0.19,0.14,0.33,0.41,0.33c0.35,0,0.7-0.28,0.7-0.69h-0.6C116.16,52.58,116.02,52.73,116.02,52.94z
				"/>
			<path class="st12" d="M118.66,53.61h-0.58v-3.43h0.58V53.61z"/>
			<path class="st12" d="M94.14,56h3.01v0.52h-1.19v2.77h-0.62v-2.77h-1.19V56z"/>
			<path class="st12" d="M98.01,57.34c0.18-0.29,0.46-0.43,0.78-0.43c0.56,0,0.87,0.41,0.87,0.97v1.41h-0.58v-1.35
				c0-0.33-0.17-0.56-0.48-0.56c-0.35,0-0.59,0.31-0.59,0.75v1.16h-0.58v-3.43h0.58V57.34z"/>
			<path class="st12" d="M100.69,56.51h-0.63v-0.57h0.63V56.51z M100.67,56.96v2.32h-0.58v-2.32H100.67z"/>
			<path class="st12" d="M101.66,57.39c0.18-0.31,0.47-0.48,0.82-0.48c0.54,0,0.86,0.39,0.86,0.95v1.43h-0.58v-1.38
				c0-0.32-0.17-0.53-0.48-0.53c-0.35,0-0.59,0.31-0.59,0.75v1.16h-0.58v-2.32h0.55V57.39z"/>
			<path class="st12" d="M104.32,57.99l0.97-1.02h0.7v0.01l-1.13,1.1l1.14,1.2v0.01h-0.73l-0.96-1.07v1.07h-0.58v-3.43h0.58V57.99z"
				/>
			<path class="st12" d="M106.78,56.51h-0.63v-0.57h0.63V56.51z M106.76,56.96v2.32h-0.58v-2.32H106.76z"/>
			<path class="st12" d="M107.76,57.39c0.18-0.31,0.47-0.48,0.82-0.48c0.54,0,0.86,0.39,0.86,0.95v1.43h-0.58v-1.38
				c0-0.32-0.17-0.53-0.48-0.53c-0.35,0-0.59,0.31-0.59,0.75v1.16h-0.58v-2.32h0.55V57.39z"/>
			<path class="st12" d="M111.61,58.81c-0.21,0.28-0.5,0.42-0.85,0.42c-0.55,0-1.06-0.44-1.06-1.15c0-0.68,0.5-1.17,1.11-1.17
				c0.34,0,0.62,0.16,0.82,0.46v-0.4h0.55v2.07c0,0.8-0.39,1.24-1.43,1.24h-0.48v-0.46h0.5c0.57,0,0.83-0.27,0.83-0.79V58.81z
				 M110.95,57.38c-0.38,0-0.66,0.26-0.66,0.7c0,0.42,0.28,0.69,0.66,0.69c0.36,0,0.67-0.31,0.67-0.68
				C111.63,57.69,111.31,57.38,110.95,57.38z"/>
		</g>
		<g>
			<path class="st12" d="M131.22,61.36c0.82,0,1.31,0.45,1.31,1.11c0,0.68-0.56,1.13-1.38,1.13h-0.82v1.17h-0.64v-3.41H131.22z
				 M130.33,61.9v1.17h0.84c0.44,0,0.71-0.23,0.71-0.58c0-0.36-0.25-0.59-0.68-0.59H130.33z"/>
			<path class="st12" d="M133.4,62.94c0.17-0.42,0.48-0.59,0.85-0.59h0.19v0.57h-0.23c-0.53,0-0.79,0.25-0.79,0.79v1.07h-0.6v-2.41
				h0.58V62.94z"/>
			<path class="st12" d="M134.43,63.56c0-0.7,0.55-1.28,1.3-1.28c0.74,0,1.29,0.57,1.29,1.29c0,0.71-0.55,1.29-1.3,1.29
				C134.98,64.86,134.43,64.29,134.43,63.56z M136.41,63.57c0-0.48-0.31-0.8-0.69-0.8c-0.4,0-0.68,0.32-0.68,0.79
				c0,0.48,0.31,0.8,0.69,0.8C136.12,64.36,136.41,64.05,136.41,63.57z"/>
			<path class="st12" d="M139.2,64.28c-0.22,0.29-0.52,0.44-0.88,0.44c-0.57,0-1.1-0.46-1.1-1.19c0-0.71,0.52-1.21,1.15-1.21
				c0.36,0,0.64,0.16,0.85,0.47v-0.41h0.58v2.15c0,0.83-0.41,1.29-1.48,1.29h-0.5v-0.47h0.52c0.59,0,0.86-0.28,0.86-0.82V64.28z
				 M138.51,62.79c-0.39,0-0.68,0.27-0.68,0.72c0,0.43,0.29,0.71,0.68,0.71c0.37,0,0.7-0.32,0.7-0.71
				C139.21,63.12,138.88,62.79,138.51,62.79z"/>
			<path class="st12" d="M140.82,62.94c0.17-0.42,0.48-0.59,0.85-0.59h0.19v0.57h-0.23c-0.53,0-0.78,0.25-0.78,0.79v1.07h-0.6v-2.41
				h0.57V62.94z"/>
			<path class="st12" d="M143.5,64.31c-0.22,0.36-0.53,0.52-0.93,0.52c-0.48,0-0.81-0.3-0.81-0.73c0-0.45,0.35-0.74,1.06-0.74h0.65
				v-0.05c0-0.37-0.2-0.56-0.54-0.56c-0.22,0-0.48,0.1-0.75,0.28l-0.21-0.39c0.28-0.21,0.62-0.35,1.03-0.35
				c0.65,0,1.04,0.37,1.04,1.05v1.43h-0.55V64.31z M142.33,64.08c0,0.19,0.15,0.35,0.42,0.35c0.36,0,0.72-0.29,0.72-0.72h-0.62
				C142.48,63.71,142.33,63.86,142.33,64.08z"/>
			<path class="st12" d="M145.03,62.79c0.18-0.32,0.47-0.49,0.8-0.49c0.38,0,0.65,0.19,0.79,0.49c0.19-0.33,0.51-0.49,0.88-0.49
				c0.58,0,0.89,0.42,0.89,1.01v1.46h-0.6v-1.4c0-0.35-0.17-0.58-0.48-0.58c-0.35,0-0.59,0.32-0.59,0.77v1.2h-0.6v-1.4
				c0-0.35-0.16-0.58-0.49-0.58c-0.35,0-0.58,0.32-0.58,0.77v1.2h-0.6v-2.41h0.58V62.79z"/>
			<path class="st12" d="M149.41,62.79c0.18-0.32,0.47-0.49,0.8-0.49c0.38,0,0.65,0.19,0.79,0.49c0.19-0.33,0.51-0.49,0.88-0.49
				c0.58,0,0.89,0.42,0.89,1.01v1.46h-0.6v-1.4c0-0.35-0.17-0.58-0.48-0.58c-0.35,0-0.59,0.32-0.59,0.77v1.2h-0.6v-1.4
				c0-0.35-0.17-0.58-0.49-0.58c-0.35,0-0.58,0.32-0.58,0.77v1.2h-0.6v-2.41h0.58V62.79z"/>
			<path class="st12" d="M153.86,61.89h-0.65V61.3h0.65V61.89z M153.83,62.36v2.41h-0.6v-2.41H153.83z"/>
			<path class="st12" d="M154.89,62.8c0.19-0.32,0.49-0.5,0.85-0.5c0.57,0,0.89,0.41,0.89,0.99v1.48h-0.6v-1.43
				c0-0.33-0.17-0.55-0.5-0.55c-0.36,0-0.61,0.32-0.61,0.77v1.2h-0.6v-2.41h0.57V62.8z"/>
			<path class="st12" d="M158.9,64.28c-0.22,0.29-0.52,0.44-0.88,0.44c-0.57,0-1.1-0.46-1.1-1.19c0-0.71,0.52-1.21,1.15-1.21
				c0.36,0,0.64,0.16,0.85,0.47v-0.41h0.57v2.15c0,0.83-0.41,1.29-1.48,1.29h-0.5v-0.47h0.52c0.59,0,0.86-0.28,0.86-0.82V64.28z
				 M158.22,62.79c-0.4,0-0.68,0.27-0.68,0.72c0,0.43,0.29,0.71,0.68,0.71c0.37,0,0.7-0.32,0.7-0.71
				C158.92,63.12,158.59,62.79,158.22,62.79z"/>
			<path class="st12" d="M136.89,70.12c-0.32,0.25-0.71,0.39-1.09,0.39c-0.72,0-1.18-0.38-1.18-0.95c0-0.42,0.25-0.76,0.85-0.95
				c-0.19-0.25-0.29-0.52-0.29-0.76c0-0.49,0.4-0.91,1.02-0.91c0.53,0,0.94,0.37,0.94,0.85c0,0.42-0.31,0.73-0.86,0.92l0.65,0.68
				c0.12-0.19,0.21-0.4,0.25-0.66h0.55c-0.07,0.38-0.23,0.73-0.45,1.01l0.67,0.7h-0.73L136.89,70.12z M135.84,70.04
				c0.27,0,0.52-0.09,0.73-0.24l-0.84-0.89c-0.37,0.13-0.53,0.33-0.53,0.59C135.2,69.79,135.45,70.04,135.84,70.04z M136.03,68.47
				c0.39-0.14,0.57-0.38,0.57-0.63c0-0.26-0.19-0.43-0.42-0.43c-0.26,0-0.44,0.19-0.44,0.45C135.74,68.04,135.82,68.23,136.03,68.47
				z"/>
			<path class="st12" d="M141.55,69.4l0.44,0.32c-0.3,0.5-0.81,0.81-1.48,0.81c-1.03,0-1.76-0.72-1.76-1.79c0-1,0.77-1.79,1.8-1.79
				c0.65,0,1.13,0.28,1.43,0.79l-0.46,0.34c-0.27-0.42-0.59-0.6-0.99-0.6c-0.67,0-1.13,0.54-1.13,1.25c0,0.77,0.49,1.26,1.12,1.26
				C140.94,70,141.3,69.8,141.55,69.4z"/>
			<path class="st12" d="M142.25,69.24c0-0.7,0.55-1.28,1.3-1.28c0.74,0,1.29,0.57,1.29,1.29c0,0.71-0.55,1.29-1.3,1.29
				C142.8,70.53,142.25,69.97,142.25,69.24z M144.23,69.25c0-0.48-0.31-0.8-0.69-0.8c-0.39,0-0.68,0.32-0.68,0.79
				c0,0.48,0.31,0.8,0.69,0.8C143.95,70.04,144.23,69.72,144.23,69.25z"/>
			<path class="st12" d="M147.03,70.04c-0.2,0.3-0.52,0.47-0.88,0.47c-0.57,0-1.11-0.49-1.11-1.25c0-0.76,0.54-1.27,1.15-1.27
				c0.35,0,0.64,0.17,0.82,0.45v-1.54h0.6v3.56h-0.58V70.04z M146.33,68.47c-0.38,0-0.68,0.29-0.68,0.77c0,0.49,0.29,0.77,0.67,0.77
				c0.37,0,0.71-0.33,0.71-0.78C147.03,68.8,146.7,68.47,146.33,68.47z"/>
			<path class="st12" d="M148.71,67.57h-0.65v-0.59h0.65V67.57z M148.69,68.04v2.41h-0.6v-2.41H148.69z"/>
			<path class="st12" d="M149.74,68.48c0.19-0.32,0.49-0.5,0.85-0.5c0.57,0,0.89,0.41,0.89,0.99v1.48h-0.6v-1.43
				c0-0.33-0.17-0.55-0.5-0.55c-0.36,0-0.61,0.32-0.61,0.77v1.2h-0.6v-2.41h0.58V68.48z"/>
			<path class="st12" d="M153.76,69.95c-0.22,0.29-0.52,0.44-0.88,0.44c-0.57,0-1.1-0.46-1.1-1.19c0-0.71,0.52-1.21,1.15-1.21
				c0.36,0,0.64,0.16,0.85,0.47v-0.41h0.57v2.15c0,0.83-0.41,1.29-1.48,1.29h-0.5V71h0.52c0.59,0,0.86-0.28,0.86-0.82V69.95z
				 M153.08,68.47c-0.4,0-0.68,0.27-0.68,0.72c0,0.43,0.29,0.71,0.68,0.71c0.37,0,0.7-0.32,0.7-0.71
				C153.78,68.79,153.44,68.47,153.08,68.47z"/>
		</g>
		<g>
			<path class="st12" d="M38.29,88.32c0-0.25-0.17-0.4-0.87-0.48c-1.04-0.15-1.35-0.44-1.35-1c0-0.54,0.48-1.03,1.38-1.03
				c0.53,0,0.94,0.16,1.34,0.45l-0.28,0.48c-0.31-0.24-0.71-0.4-1.07-0.4c-0.52,0-0.76,0.21-0.76,0.45c0,0.25,0.15,0.38,0.82,0.47
				c1.08,0.15,1.4,0.44,1.4,1.01c0,0.57-0.5,1.08-1.43,1.08c-0.61,0-1.09-0.16-1.53-0.51l0.28-0.48c0.41,0.31,0.85,0.46,1.26,0.46
				C38.04,88.82,38.29,88.59,38.29,88.32z"/>
			<path class="st12" d="M39.19,88.08c0-0.7,0.55-1.28,1.3-1.28c0.74,0,1.29,0.57,1.29,1.29c0,0.71-0.55,1.29-1.3,1.29
				C39.74,89.37,39.19,88.8,39.19,88.08z M41.17,88.08c0-0.48-0.31-0.8-0.69-0.8c-0.4,0-0.68,0.32-0.68,0.79
				c0,0.48,0.31,0.8,0.69,0.8C40.88,88.88,41.17,88.56,41.17,88.08z"/>
			<path class="st12" d="M41.98,88.08c0-0.71,0.56-1.29,1.31-1.29c0.51,0,0.87,0.22,1.07,0.65l-0.45,0.28
				c-0.14-0.32-0.35-0.44-0.63-0.44c-0.4,0-0.7,0.35-0.7,0.8c0,0.47,0.3,0.79,0.69,0.79c0.26,0,0.51-0.14,0.66-0.42l0.44,0.27
				c-0.2,0.4-0.62,0.64-1.14,0.64C42.48,89.37,41.98,88.87,41.98,88.08z"/>
			<path class="st12" d="M45.32,86.4h-0.65v-0.59h0.65V86.4z M45.3,86.88v2.41h-0.6v-2.41H45.3z"/>
			<path class="st12" d="M47.33,88.82c-0.22,0.36-0.53,0.52-0.93,0.52c-0.48,0-0.81-0.3-0.81-0.73c0-0.45,0.35-0.74,1.06-0.74h0.65
				v-0.05c0-0.37-0.2-0.56-0.54-0.56c-0.22,0-0.48,0.1-0.75,0.28l-0.21-0.39c0.28-0.21,0.62-0.35,1.03-0.35
				c0.65,0,1.04,0.37,1.04,1.05v1.43h-0.55V88.82z M46.17,88.59c0,0.19,0.15,0.35,0.42,0.35c0.36,0,0.72-0.29,0.72-0.72h-0.62
				C46.31,88.22,46.17,88.37,46.17,88.59z"/>
			<path class="st12" d="M48.92,89.29h-0.6v-3.56h0.6V89.29z"/>
			<path class="st12" d="M50.57,87.58v0.56h-1.31v-0.56H50.57z"/>
			<path class="st12" d="M35,91.55v0.51h-1.98v0.93h1.84v0.51h-1.84v0.96H35v0.51H32.4v-3.41H35z"/>
			<path class="st12" d="M36.01,92.98c0.18-0.32,0.47-0.49,0.8-0.49c0.38,0,0.65,0.19,0.79,0.49c0.19-0.33,0.51-0.49,0.88-0.49
				c0.58,0,0.89,0.42,0.89,1.01v1.46h-0.6v-1.4c0-0.35-0.17-0.58-0.48-0.58c-0.35,0-0.59,0.32-0.59,0.77v1.2h-0.6v-1.4
				c0-0.35-0.16-0.58-0.49-0.58c-0.35,0-0.58,0.32-0.58,0.77v1.2h-0.6v-2.41h0.58V92.98z"/>
			<path class="st12" d="M39.68,93.75c0-0.7,0.55-1.28,1.3-1.28c0.74,0,1.29,0.57,1.29,1.29c0,0.71-0.55,1.29-1.3,1.29
				C40.23,95.05,39.68,94.48,39.68,93.75z M41.66,93.76c0-0.48-0.31-0.8-0.69-0.8c-0.4,0-0.68,0.32-0.68,0.79
				c0,0.48,0.31,0.8,0.69,0.8C41.38,94.55,41.66,94.24,41.66,93.76z"/>
			<path class="st12" d="M42.8,93.03h-0.44v-0.48h0.45v-0.68h0.58v0.68h0.66v0.48H43.4v1.02c0,0.32,0.15,0.43,0.41,0.43h0.25v0.48
				H43.7c-0.62,0-0.9-0.25-0.9-0.86V93.03z"/>
			<path class="st12" d="M45.01,92.08h-0.65v-0.59h0.65V92.08z M44.99,92.55v2.41h-0.6v-2.41H44.99z"/>
			<path class="st12" d="M45.34,93.75c0-0.7,0.55-1.28,1.3-1.28c0.74,0,1.29,0.57,1.29,1.29c0,0.71-0.55,1.29-1.3,1.29
				C45.89,95.05,45.34,94.48,45.34,93.75z M47.32,93.76c0-0.48-0.31-0.8-0.69-0.8c-0.39,0-0.68,0.32-0.68,0.79
				c0,0.48,0.31,0.8,0.69,0.8C47.04,94.55,47.32,94.24,47.32,93.76z"/>
			<path class="st12" d="M48.83,92.99c0.19-0.32,0.49-0.5,0.85-0.5c0.57,0,0.89,0.41,0.89,0.99v1.48h-0.6v-1.43
				c0-0.33-0.18-0.55-0.5-0.55c-0.36,0-0.61,0.32-0.61,0.77v1.2h-0.6v-2.41h0.58V92.99z"/>
			<path class="st12" d="M52.56,94.5c-0.22,0.36-0.53,0.52-0.93,0.52c-0.48,0-0.81-0.3-0.81-0.73c0-0.45,0.35-0.74,1.06-0.74h0.65
				V93.5c0-0.37-0.2-0.56-0.54-0.56c-0.22,0-0.48,0.1-0.75,0.28l-0.21-0.39c0.28-0.21,0.62-0.35,1.03-0.35
				c0.65,0,1.04,0.37,1.04,1.05v1.43h-0.55V94.5z M51.39,94.27c0,0.19,0.15,0.35,0.42,0.35c0.36,0,0.72-0.29,0.72-0.72h-0.62
				C51.54,93.9,51.39,94.05,51.39,94.27z"/>
			<path class="st12" d="M54.14,94.96h-0.6V91.4h0.6V94.96z"/>
			<path class="st12" d="M40.02,99.67c0-0.25-0.17-0.4-0.87-0.48c-1.04-0.15-1.35-0.44-1.35-1c0-0.54,0.48-1.03,1.38-1.03
				c0.53,0,0.94,0.16,1.34,0.45l-0.28,0.48c-0.31-0.24-0.71-0.4-1.07-0.4c-0.52,0-0.76,0.21-0.76,0.45c0,0.25,0.15,0.38,0.82,0.47
				c1.08,0.15,1.4,0.44,1.4,1.01c0,0.57-0.5,1.08-1.43,1.08c-0.61,0-1.09-0.16-1.54-0.51l0.28-0.48c0.4,0.31,0.85,0.46,1.26,0.46
				C39.76,100.18,40.02,99.94,40.02,99.67z"/>
			<path class="st12" d="M41.64,99.29l1.01-1.06h0.73v0.01l-1.18,1.15l1.18,1.24v0.01h-0.76l-0.99-1.11v1.11h-0.6v-3.56h0.6V99.29z"
				/>
			<path class="st12" d="M44.22,97.76h-0.65v-0.59h0.65V97.76z M44.19,98.23v2.41h-0.6v-2.41H44.19z"/>
			<path class="st12" d="M45.3,100.64h-0.6v-3.56h0.6V100.64z"/>
			<path class="st12" d="M46.4,100.64h-0.6v-3.56h0.6V100.64z"/>
			<path class="st12" d="M47.78,100.71c-0.4,0-0.76-0.1-1.07-0.3l0.19-0.42c0.32,0.18,0.62,0.27,0.89,0.27
				c0.37,0,0.52-0.14,0.52-0.3c0-0.15-0.1-0.24-0.55-0.3c-0.74-0.1-0.96-0.33-0.96-0.76c0-0.39,0.37-0.74,1-0.74
				c0.35,0,0.67,0.09,0.96,0.27l-0.18,0.42c-0.29-0.17-0.56-0.24-0.79-0.24c-0.32,0-0.46,0.13-0.46,0.26c0,0.14,0.09,0.23,0.52,0.29
				c0.77,0.1,0.99,0.33,0.99,0.77C48.84,100.35,48.45,100.71,47.78,100.71z"/>
		</g>
		<g>
			<path class="st12" d="M78.94,85.54c1.16,0,1.86,0.69,1.86,1.68c0,1.01-0.73,1.73-1.94,1.73h-1.24v-3.41H78.94z M78.27,86.08v2.34
				h0.6c0.83,0,1.29-0.48,1.29-1.18c0-0.65-0.46-1.16-1.21-1.16H78.27z"/>
			<path class="st12" d="M83.11,88.27l0.28,0.33c-0.28,0.28-0.62,0.43-1.06,0.43c-0.78,0-1.27-0.52-1.27-1.29
				c0-0.74,0.57-1.29,1.26-1.29c0.69,0,1.16,0.49,1.16,1.22c0,0.1-0.01,0.17-0.02,0.22h-1.83c0.06,0.43,0.38,0.68,0.75,0.68
				C82.64,88.59,82.9,88.48,83.11,88.27z M81.63,87.56h1.28c-0.04-0.44-0.29-0.66-0.6-0.66C81.98,86.9,81.7,87.13,81.63,87.56z"/>
			<path class="st12" d="M84.73,89.02c-0.41,0-0.76-0.1-1.07-0.3l0.19-0.42c0.32,0.18,0.62,0.27,0.89,0.27
				c0.37,0,0.52-0.14,0.52-0.3c0-0.15-0.1-0.24-0.55-0.3c-0.74-0.1-0.96-0.33-0.96-0.76c0-0.39,0.37-0.74,1-0.74
				c0.35,0,0.67,0.09,0.96,0.27l-0.18,0.42c-0.29-0.17-0.56-0.24-0.8-0.24c-0.32,0-0.46,0.13-0.46,0.26c0,0.14,0.09,0.23,0.52,0.29
				c0.77,0.1,0.99,0.33,0.99,0.77C85.79,88.66,85.4,89.02,84.73,89.02z"/>
			<path class="st12" d="M86.77,86.07h-0.65v-0.59h0.65V86.07z M86.74,86.54v2.41h-0.6v-2.41H86.74z"/>
			<path class="st12" d="M89.07,88.45c-0.22,0.29-0.52,0.44-0.88,0.44c-0.57,0-1.1-0.46-1.1-1.19c0-0.71,0.52-1.21,1.15-1.21
				c0.36,0,0.64,0.16,0.85,0.47v-0.41h0.58v2.15c0,0.83-0.41,1.29-1.48,1.29h-0.5V89.5h0.52c0.59,0,0.86-0.28,0.86-0.82V88.45z
				 M88.39,86.97c-0.4,0-0.68,0.27-0.68,0.72c0,0.43,0.29,0.71,0.68,0.71c0.37,0,0.7-0.32,0.7-0.71
				C89.09,87.29,88.76,86.97,88.39,86.97z"/>
			<path class="st12" d="M90.69,86.98c0.19-0.32,0.49-0.5,0.85-0.5c0.57,0,0.89,0.41,0.89,0.99v1.48h-0.6v-1.43
				c0-0.33-0.18-0.55-0.5-0.55c-0.36,0-0.61,0.32-0.61,0.77v1.2h-0.6v-2.41h0.58V86.98z"/>
			<path class="st12" d="M75.48,91.22h3.12v0.54h-1.24v2.88h-0.64v-2.88h-1.24V91.22z"/>
			<path class="st12" d="M79.51,92.61c0.19-0.3,0.47-0.45,0.81-0.45c0.58,0,0.91,0.42,0.91,1.01v1.46h-0.6v-1.4
				c0-0.35-0.18-0.58-0.5-0.58c-0.36,0-0.61,0.32-0.61,0.77v1.2h-0.6v-3.56h0.6V92.61z"/>
			<path class="st12" d="M82.31,91.75h-0.65v-0.59h0.65V91.75z M82.28,92.22v2.41h-0.6v-2.41H82.28z"/>
			<path class="st12" d="M83.34,92.66c0.19-0.32,0.49-0.5,0.85-0.5c0.57,0,0.89,0.41,0.89,0.99v1.48h-0.6V93.2
				c0-0.33-0.18-0.55-0.5-0.55c-0.36,0-0.61,0.32-0.61,0.77v1.2h-0.6v-2.41h0.58V92.66z"/>
			<path class="st12" d="M86.11,93.28l1.01-1.06h0.73v0.01l-1.17,1.15l1.18,1.24v0.01H87.1l-0.99-1.11v1.11h-0.6v-3.56h0.6V93.28z"
				/>
			<path class="st12" d="M88.68,91.75h-0.65v-0.59h0.65V91.75z M88.66,92.22v2.41h-0.6v-2.41H88.66z"/>
			<path class="st12" d="M89.71,92.66c0.19-0.32,0.49-0.5,0.85-0.5c0.57,0,0.89,0.41,0.89,0.99v1.48h-0.6V93.2
				c0-0.33-0.17-0.55-0.5-0.55c-0.36,0-0.61,0.32-0.61,0.77v1.2h-0.6v-2.41h0.58V92.66z"/>
			<path class="st12" d="M93.73,94.13c-0.22,0.29-0.52,0.44-0.88,0.44c-0.57,0-1.1-0.46-1.1-1.19c0-0.71,0.52-1.21,1.15-1.21
				c0.36,0,0.64,0.16,0.85,0.47v-0.41h0.58v2.15c0,0.83-0.41,1.29-1.48,1.29h-0.5v-0.47h0.52c0.59,0,0.86-0.28,0.86-0.82V94.13z
				 M93.05,92.65c-0.4,0-0.68,0.27-0.68,0.72c0,0.43,0.29,0.71,0.68,0.71c0.37,0,0.7-0.32,0.7-0.71
				C93.75,92.97,93.41,92.65,93.05,92.65z"/>
		</g>
		<g>
			<path class="st12" d="M103.46,119.6c1.16,0,1.86,0.69,1.86,1.68c0,1.01-0.73,1.73-1.94,1.73h-1.24v-3.41H103.46z M102.78,120.14
				v2.34h0.6c0.83,0,1.29-0.48,1.29-1.18c0-0.65-0.46-1.16-1.21-1.16H102.78z"/>
			<path class="st12" d="M107.25,122.55c-0.22,0.36-0.53,0.52-0.93,0.52c-0.48,0-0.81-0.3-0.81-0.73c0-0.45,0.35-0.74,1.06-0.74
				h0.65v-0.05c0-0.37-0.21-0.56-0.54-0.56c-0.22,0-0.48,0.1-0.75,0.28l-0.21-0.39c0.28-0.21,0.62-0.35,1.03-0.35
				c0.65,0,1.04,0.37,1.04,1.05v1.43h-0.55V122.55z M106.08,122.32c0,0.19,0.15,0.35,0.42,0.35c0.36,0,0.72-0.29,0.72-0.72h-0.62
				C106.23,121.95,106.08,122.1,106.08,122.32z"/>
			<path class="st12" d="M108.41,121.08h-0.44v-0.48h0.45v-0.68H109v0.68h0.66v0.48h-0.66v1.02c0,0.32,0.15,0.43,0.4,0.43h0.25v0.48
				h-0.35c-0.62,0-0.9-0.25-0.9-0.86V121.08z"/>
			<path class="st12" d="M111.56,122.55c-0.22,0.36-0.53,0.52-0.93,0.52c-0.48,0-0.81-0.3-0.81-0.73c0-0.45,0.35-0.74,1.06-0.74
				h0.65v-0.05c0-0.37-0.21-0.56-0.54-0.56c-0.22,0-0.48,0.1-0.75,0.28l-0.21-0.39c0.28-0.21,0.62-0.35,1.03-0.35
				c0.65,0,1.04,0.37,1.04,1.05v1.43h-0.55V122.55z M110.39,122.32c0,0.19,0.15,0.35,0.42,0.35c0.36,0,0.72-0.29,0.72-0.72h-0.62
				C110.54,121.95,110.39,122.1,110.39,122.32z"/>
			<path class="st12" d="M100.78,127.73c0-0.25-0.17-0.4-0.87-0.48c-1.04-0.15-1.35-0.44-1.35-1c0-0.54,0.48-1.03,1.38-1.03
				c0.53,0,0.94,0.16,1.34,0.45l-0.28,0.48c-0.31-0.24-0.71-0.4-1.07-0.4c-0.52,0-0.76,0.21-0.76,0.45c0,0.25,0.15,0.38,0.82,0.47
				c1.08,0.15,1.4,0.44,1.4,1.01c0,0.57-0.5,1.08-1.43,1.08c-0.61,0-1.09-0.16-1.53-0.51l0.28-0.48c0.41,0.31,0.85,0.46,1.26,0.46
				C100.52,128.23,100.78,128,100.78,127.73z"/>
			<path class="st12" d="M101.68,127.49c0-0.71,0.56-1.29,1.31-1.29c0.51,0,0.87,0.22,1.07,0.65l-0.45,0.28
				c-0.14-0.32-0.35-0.44-0.63-0.44c-0.4,0-0.7,0.35-0.7,0.8c0,0.47,0.3,0.79,0.69,0.79c0.26,0,0.51-0.14,0.66-0.42l0.44,0.27
				c-0.2,0.4-0.62,0.64-1.14,0.64C102.18,128.78,101.68,128.28,101.68,127.49z"/>
			<path class="st12" d="M105.01,125.81h-0.65v-0.59h0.65V125.81z M104.99,126.28v2.41h-0.6v-2.41H104.99z"/>
			<path class="st12" d="M107.4,128.01l0.28,0.33c-0.28,0.28-0.62,0.43-1.06,0.43c-0.78,0-1.27-0.52-1.27-1.29
				c0-0.74,0.57-1.29,1.26-1.29c0.69,0,1.16,0.49,1.16,1.22c0,0.1-0.01,0.17-0.02,0.22h-1.83c0.06,0.43,0.38,0.68,0.75,0.68
				C106.93,128.33,107.19,128.22,107.4,128.01z M105.93,127.3h1.28c-0.04-0.44-0.29-0.66-0.6-0.66
				C106.28,126.64,105.99,126.87,105.93,127.3z"/>
			<path class="st12" d="M108.69,126.72c0.19-0.32,0.49-0.5,0.85-0.5c0.57,0,0.89,0.41,0.89,0.99v1.48h-0.6v-1.43
				c0-0.33-0.18-0.55-0.5-0.55c-0.36,0-0.61,0.32-0.61,0.77v1.2h-0.6v-2.41h0.58V126.72z"/>
			<path class="st12" d="M110.74,127.49c0-0.71,0.56-1.29,1.31-1.29c0.51,0,0.87,0.22,1.07,0.65l-0.45,0.28
				c-0.14-0.32-0.35-0.44-0.63-0.44c-0.4,0-0.7,0.35-0.7,0.8c0,0.47,0.3,0.79,0.69,0.79c0.26,0,0.51-0.14,0.66-0.42l0.44,0.27
				c-0.2,0.4-0.62,0.64-1.14,0.64C111.24,128.78,110.74,128.28,110.74,127.49z"/>
			<path class="st12" d="M115.33,128.01l0.28,0.33c-0.28,0.28-0.62,0.43-1.06,0.43c-0.78,0-1.27-0.52-1.27-1.29
				c0-0.74,0.57-1.29,1.26-1.29c0.69,0,1.16,0.49,1.16,1.22c0,0.1-0.01,0.17-0.02,0.22h-1.83c0.06,0.43,0.38,0.68,0.75,0.68
				C114.87,128.33,115.12,128.22,115.33,128.01z M113.86,127.3h1.28c-0.04-0.44-0.29-0.66-0.6-0.66
				C114.21,126.64,113.92,126.87,113.86,127.3z"/>
		</g>
		<g>
			<path class="st12" d="M142.28,135.02l1.43-3.42h0.8l1.42,3.42h-0.68l-0.33-0.82h-1.66l-0.33,0.82H142.28z M144.73,133.7
				l-0.63-1.57l-0.63,1.57H144.73z"/>
			<path class="st12" d="M146.94,131.6v3.41h-0.64v-3.41H146.94z"/>
			<path class="st12" d="M150.33,134.69c-0.32,0.25-0.71,0.39-1.09,0.39c-0.72,0-1.18-0.38-1.18-0.95c0-0.42,0.25-0.76,0.85-0.95
				c-0.19-0.25-0.29-0.52-0.29-0.76c0-0.49,0.4-0.91,1.02-0.91c0.53,0,0.94,0.37,0.94,0.85c0,0.42-0.31,0.73-0.86,0.92l0.65,0.68
				c0.12-0.19,0.21-0.4,0.25-0.66h0.55c-0.07,0.38-0.23,0.73-0.45,1.01l0.67,0.7h-0.74L150.33,134.69z M149.28,134.6
				c0.27,0,0.52-0.09,0.73-0.24l-0.84-0.89c-0.37,0.13-0.53,0.33-0.53,0.59C148.64,134.36,148.89,134.6,149.28,134.6z
				 M149.47,133.04c0.39-0.14,0.57-0.38,0.57-0.63c0-0.26-0.19-0.43-0.42-0.43c-0.26,0-0.44,0.19-0.44,0.45
				C149.18,132.61,149.26,132.79,149.47,133.04z"/>
			<path class="st12" d="M141.55,140.69h-0.61v-2.94l-0.99,2.12h-0.58l-0.99-2.11v2.93h-0.61v-3.41h1l0.91,1.96l0.91-1.96h0.97
				V140.69z"/>
			<path class="st12" d="M143.64,140.23c-0.22,0.36-0.53,0.52-0.93,0.52c-0.48,0-0.81-0.3-0.81-0.73c0-0.45,0.35-0.74,1.06-0.74
				h0.65v-0.05c0-0.37-0.21-0.56-0.54-0.56c-0.22,0-0.48,0.1-0.75,0.28l-0.21-0.39c0.28-0.21,0.62-0.35,1.03-0.35
				c0.65,0,1.04,0.37,1.04,1.05v1.43h-0.55V140.23z M142.47,140c0,0.19,0.15,0.35,0.42,0.35c0.36,0,0.72-0.29,0.72-0.72h-0.62
				C142.62,139.63,142.47,139.78,142.47,140z"/>
			<path class="st12" d="M144.47,139.49c0-0.71,0.56-1.29,1.31-1.29c0.51,0,0.87,0.22,1.07,0.65l-0.45,0.28
				c-0.14-0.32-0.35-0.44-0.63-0.44c-0.4,0-0.7,0.35-0.7,0.8c0,0.47,0.3,0.79,0.69,0.79c0.26,0,0.51-0.14,0.66-0.42l0.44,0.27
				c-0.2,0.4-0.62,0.64-1.14,0.64C144.97,140.78,144.47,140.28,144.47,139.49z"/>
			<path class="st12" d="M147.76,138.67c0.19-0.3,0.47-0.45,0.81-0.45c0.58,0,0.91,0.42,0.91,1.01v1.46h-0.6v-1.4
				c0-0.35-0.18-0.58-0.5-0.58c-0.36,0-0.61,0.32-0.61,0.77v1.2h-0.6v-3.56h0.6V138.67z"/>
			<path class="st12" d="M150.55,137.81h-0.65v-0.59h0.65V137.81z M150.53,138.29v2.41h-0.6v-2.41H150.53z"/>
			<path class="st12" d="M151.59,138.72c0.19-0.32,0.49-0.5,0.85-0.5c0.57,0,0.89,0.41,0.89,0.99v1.48h-0.6v-1.43
				c0-0.33-0.17-0.55-0.5-0.55c-0.36,0-0.61,0.32-0.61,0.77v1.2h-0.6v-2.41h0.57V138.72z"/>
			<path class="st12" d="M155.68,140.02l0.28,0.33c-0.28,0.28-0.62,0.43-1.06,0.43c-0.78,0-1.27-0.52-1.27-1.29
				c0-0.74,0.57-1.29,1.26-1.29c0.69,0,1.16,0.49,1.16,1.22c0,0.1-0.01,0.17-0.02,0.22h-1.83c0.06,0.43,0.38,0.68,0.75,0.68
				C155.22,140.33,155.47,140.23,155.68,140.02z M154.21,139.3h1.28c-0.04-0.44-0.29-0.66-0.6-0.66
				C154.56,138.64,154.28,138.88,154.21,139.3z"/>
			<path class="st12" d="M138.13,142.96v2.89h1.79v0.53h-2.44v-3.41H138.13z"/>
			<path class="st12" d="M142.15,145.69l0.28,0.33c-0.28,0.28-0.62,0.43-1.06,0.43c-0.78,0-1.27-0.52-1.27-1.29
				c0-0.74,0.57-1.29,1.26-1.29c0.69,0,1.16,0.49,1.16,1.22c0,0.1-0.01,0.17-0.02,0.22h-1.83c0.06,0.43,0.38,0.68,0.75,0.68
				C141.69,146.01,141.94,145.9,142.15,145.69z M140.68,144.98h1.28c-0.04-0.44-0.29-0.66-0.6-0.66
				C141.03,144.32,140.75,144.55,140.68,144.98z"/>
			<path class="st12" d="M144.43,145.91c-0.22,0.36-0.53,0.52-0.93,0.52c-0.48,0-0.81-0.3-0.81-0.73c0-0.45,0.35-0.74,1.06-0.74
				h0.65v-0.05c0-0.37-0.2-0.56-0.54-0.56c-0.22,0-0.48,0.1-0.75,0.28l-0.21-0.39c0.28-0.21,0.62-0.35,1.03-0.35
				c0.65,0,1.04,0.37,1.04,1.05v1.43h-0.55V145.91z M143.26,145.67c0,0.19,0.15,0.35,0.42,0.35c0.36,0,0.72-0.29,0.72-0.72h-0.62
				C143.41,145.3,143.26,145.45,143.26,145.67z"/>
			<path class="st12" d="M145.96,144.54c0.17-0.42,0.48-0.59,0.85-0.59H147v0.57h-0.23c-0.53,0-0.78,0.25-0.78,0.79v1.07h-0.6v-2.41
				h0.57V144.54z"/>
			<path class="st12" d="M147.76,144.4c0.19-0.32,0.49-0.5,0.85-0.5c0.57,0,0.89,0.41,0.89,0.99v1.48h-0.6v-1.43
				c0-0.33-0.18-0.55-0.5-0.55c-0.36,0-0.61,0.32-0.61,0.77v1.2h-0.6v-2.41h0.58V144.4z"/>
			<path class="st12" d="M150.58,143.49h-0.65v-0.59h0.65V143.49z M150.55,143.96v2.41h-0.6v-2.41H150.55z"/>
			<path class="st12" d="M151.61,144.4c0.19-0.32,0.49-0.5,0.85-0.5c0.57,0,0.89,0.41,0.89,0.99v1.48h-0.6v-1.43
				c0-0.33-0.17-0.55-0.5-0.55c-0.36,0-0.61,0.32-0.61,0.77v1.2h-0.6v-2.41h0.57V144.4z"/>
			<path class="st12" d="M155.63,145.87c-0.22,0.29-0.52,0.44-0.88,0.44c-0.57,0-1.1-0.46-1.1-1.19c0-0.71,0.52-1.21,1.15-1.21
				c0.36,0,0.64,0.16,0.85,0.47v-0.41h0.57v2.15c0,0.83-0.41,1.29-1.48,1.29h-0.5v-0.47h0.52c0.59,0,0.86-0.28,0.86-0.82V145.87z
				 M154.94,144.39c-0.4,0-0.68,0.27-0.68,0.72c0,0.43,0.29,0.71,0.68,0.71c0.37,0,0.7-0.32,0.7-0.71
				C155.64,144.71,155.31,144.39,154.94,144.39z"/>
		</g>
		<g>
			<path class="st12" d="M158.81,98.86h-0.61v-2.94l-0.99,2.12h-0.58l-0.99-2.11v2.93h-0.61v-3.41h1l0.91,1.96l0.91-1.96h0.97V98.86
				z"/>
			<path class="st12" d="M159.21,97.66c0-0.7,0.55-1.28,1.3-1.28c0.74,0,1.29,0.57,1.29,1.29c0,0.71-0.55,1.29-1.3,1.29
				C159.76,98.95,159.21,98.38,159.21,97.66z M161.19,97.66c0-0.48-0.31-0.8-0.69-0.8c-0.39,0-0.68,0.32-0.68,0.79
				c0,0.48,0.31,0.8,0.69,0.8C160.91,98.46,161.19,98.14,161.19,97.66z"/>
			<path class="st12" d="M163.99,98.46c-0.2,0.3-0.52,0.47-0.88,0.47c-0.57,0-1.11-0.49-1.11-1.25c0-0.76,0.54-1.27,1.15-1.27
				c0.35,0,0.64,0.17,0.82,0.45v-1.54h0.6v3.56h-0.58V98.46z M163.29,96.89c-0.38,0-0.68,0.29-0.68,0.77c0,0.49,0.29,0.77,0.67,0.77
				c0.37,0,0.71-0.33,0.71-0.78C163.98,97.22,163.66,96.89,163.29,96.89z"/>
			<path class="st12" d="M166.95,98.19l0.28,0.33c-0.28,0.28-0.62,0.43-1.06,0.43c-0.78,0-1.27-0.52-1.27-1.29
				c0-0.74,0.57-1.29,1.26-1.29c0.69,0,1.16,0.49,1.16,1.22c0,0.1-0.01,0.17-0.02,0.22h-1.83c0.06,0.43,0.38,0.68,0.75,0.68
				C166.49,98.5,166.74,98.4,166.95,98.19z M165.48,97.47h1.28c-0.04-0.44-0.29-0.66-0.6-0.66
				C165.83,96.81,165.55,97.05,165.48,97.47z"/>
			<path class="st12" d="M168.29,98.86h-0.6v-3.56h0.6V98.86z"/>
			<path class="st12" d="M169.42,95.98h-0.65v-0.59h0.65V95.98z M169.4,96.46v2.41h-0.6v-2.41H169.4z"/>
			<path class="st12" d="M170.45,96.9c0.19-0.32,0.49-0.5,0.85-0.5c0.57,0,0.89,0.41,0.89,0.99v1.48h-0.6v-1.43
				c0-0.33-0.18-0.55-0.5-0.55c-0.36,0-0.61,0.32-0.61,0.77v1.2h-0.6v-2.41h0.58V96.9z"/>
			<path class="st12" d="M174.47,98.37c-0.22,0.29-0.52,0.44-0.88,0.44c-0.57,0-1.1-0.46-1.1-1.19c0-0.71,0.52-1.21,1.15-1.21
				c0.36,0,0.64,0.16,0.85,0.47v-0.41h0.58v2.15c0,0.83-0.41,1.29-1.48,1.29h-0.5v-0.47h0.52c0.59,0,0.86-0.28,0.86-0.82V98.37z
				 M173.79,96.89c-0.39,0-0.68,0.27-0.68,0.72c0,0.43,0.29,0.71,0.68,0.71c0.37,0,0.7-0.32,0.7-0.71
				C174.49,97.21,174.15,96.89,173.79,96.89z"/>
			<path class="st12" d="M178.33,98.54c-0.32,0.25-0.71,0.39-1.09,0.39c-0.72,0-1.18-0.38-1.18-0.95c0-0.42,0.25-0.76,0.85-0.95
				c-0.19-0.25-0.29-0.52-0.29-0.76c0-0.49,0.4-0.91,1.02-0.91c0.53,0,0.94,0.37,0.94,0.85c0,0.42-0.31,0.73-0.86,0.92l0.65,0.68
				c0.12-0.19,0.2-0.4,0.25-0.66h0.54c-0.07,0.38-0.23,0.73-0.45,1.01l0.67,0.7h-0.74L178.33,98.54z M177.29,98.45
				c0.27,0,0.52-0.09,0.73-0.24l-0.84-0.89c-0.37,0.13-0.53,0.33-0.53,0.59C176.65,98.21,176.9,98.45,177.29,98.45z M177.48,96.89
				c0.39-0.14,0.57-0.38,0.57-0.63c0-0.26-0.19-0.43-0.42-0.43c-0.26,0-0.44,0.19-0.44,0.45C177.18,96.46,177.27,96.64,177.48,96.89
				z"/>
			<path class="st12" d="M157.76,103.58c0-0.25-0.17-0.4-0.87-0.48c-1.04-0.15-1.35-0.44-1.35-1c0-0.54,0.48-1.03,1.38-1.03
				c0.53,0,0.94,0.16,1.34,0.45l-0.28,0.48c-0.31-0.24-0.71-0.4-1.07-0.4c-0.52,0-0.76,0.21-0.76,0.45c0,0.25,0.15,0.38,0.82,0.47
				c1.08,0.15,1.4,0.44,1.4,1.01c0,0.57-0.5,1.08-1.43,1.08c-0.61,0-1.09-0.16-1.53-0.51l0.28-0.48c0.41,0.31,0.85,0.46,1.26,0.46
				C157.5,104.08,157.76,103.85,157.76,103.58z"/>
			<path class="st12" d="M159.43,101.66h-0.65v-0.59h0.65V101.66z M159.41,102.13v2.41h-0.6v-2.41H159.41z"/>
			<path class="st12" d="M160.46,102.56c0.18-0.32,0.47-0.49,0.8-0.49c0.38,0,0.65,0.19,0.79,0.49c0.19-0.33,0.51-0.49,0.88-0.49
				c0.58,0,0.89,0.42,0.89,1.01v1.46h-0.6v-1.4c0-0.35-0.17-0.58-0.48-0.58c-0.35,0-0.59,0.32-0.59,0.77v1.2h-0.6v-1.4
				c0-0.35-0.17-0.58-0.49-0.58c-0.35,0-0.58,0.32-0.58,0.77v1.2h-0.6v-2.41h0.57V102.56z"/>
			<path class="st12" d="M165.98,104.1c-0.18,0.32-0.49,0.5-0.85,0.5c-0.57,0-0.89-0.41-0.89-0.99v-1.48h0.6v1.43
				c0,0.33,0.18,0.55,0.5,0.55c0.36,0,0.62-0.31,0.62-0.77v-1.2h0.6v2.41h-0.58V104.1z"/>
			<path class="st12" d="M167.63,104.54h-0.6v-3.56h0.6V104.54z"/>
			<path class="st12" d="M169.67,104.08c-0.22,0.36-0.53,0.52-0.93,0.52c-0.48,0-0.81-0.3-0.81-0.73c0-0.45,0.35-0.74,1.06-0.74
				h0.65v-0.05c0-0.37-0.2-0.56-0.54-0.56c-0.22,0-0.48,0.1-0.75,0.28l-0.21-0.39c0.28-0.21,0.62-0.35,1.03-0.35
				c0.65,0,1.04,0.37,1.04,1.05v1.43h-0.55V104.08z M168.5,103.85c0,0.19,0.15,0.35,0.42,0.35c0.36,0,0.72-0.29,0.72-0.72h-0.62
				C168.65,103.47,168.5,103.63,168.5,103.85z"/>
			<path class="st12" d="M170.83,102.61h-0.44v-0.48h0.45v-0.68h0.58v0.68h0.66v0.48h-0.66v1.02c0,0.32,0.15,0.43,0.41,0.43h0.25
				v0.48h-0.36c-0.62,0-0.9-0.25-0.9-0.86V102.61z"/>
			<path class="st12" d="M173.04,101.66h-0.65v-0.59h0.65V101.66z M173.02,102.13v2.41h-0.6v-2.41H173.02z"/>
			<path class="st12" d="M173.37,103.33c0-0.7,0.55-1.28,1.3-1.28c0.74,0,1.29,0.57,1.29,1.29c0,0.71-0.55,1.29-1.3,1.29
				C173.92,104.63,173.37,104.06,173.37,103.33z M175.35,103.34c0-0.48-0.31-0.8-0.69-0.8c-0.4,0-0.68,0.32-0.68,0.79
				c0,0.48,0.31,0.8,0.69,0.8C175.06,104.13,175.35,103.82,175.35,103.34z"/>
			<path class="st12" d="M176.86,102.57c0.19-0.32,0.49-0.5,0.85-0.5c0.57,0,0.89,0.41,0.89,0.99v1.48H178v-1.43
				c0-0.33-0.17-0.55-0.5-0.55c-0.36,0-0.61,0.32-0.61,0.77v1.2h-0.6v-2.41h0.58V102.57z"/>
		</g>
	</g>
</g>
<g id="Intel_one_Med_copy_in_circles">
</g>
<g id="legal_copy">
</g>
</svg>
