<svg width="153" height="163" xmlns="http://www.w3.org/2000/svg" xmlns:xlink="http://www.w3.org/1999/xlink" xml:space="preserve" overflow="hidden"><defs><clipPath id="clip0"><rect x="837" y="1312" width="153" height="163"/></clipPath></defs><g clip-path="url(#clip0)" transform="translate(-837 -1312)"><path d="M20.9237 94.3031 18.4403 82.683 23.4069 82.683ZM55.649 111.95C52.655 107.711 51.0846 102.705 51.0846 97.4446 51.0846 83.451 62.4788 72.0536 76.4985 72.0536 90.5227 72.0536 101.916 83.451 101.916 97.4446 101.916 102.705 100.345 107.711 97.3512 111.95 91.1436 109.831 84.1326 108.771 76.4985 108.771 68.8692 108.771 61.8582 109.831 55.649 111.95ZM51.0846 131.641 51.0846 126.199C52.1815 125.467 53.8232 124.481 56.0498 123.495 61.8582 121.012 68.722 119.731 76.4985 119.731 84.2784 119.731 91.1789 121.012 96.9861 123.532 99.1769 124.481 100.82 125.467 101.916 126.199L101.916 131.641 77.4501 127.405C77.1218 127.331 76.8295 127.331 76.4985 127.331 76.1722 127.331 75.8797 127.331 75.5514 127.405ZM76.4985 151.956 37.4644 145.161 76.4985 138.366 115.572 145.161ZM75.5514 162.916C76.1722 163.028 76.8295 163.028 77.4501 162.916L148.473 150.568C151.102 150.093 153 147.828 153 145.161 153 142.493 151.102 140.228 148.473 139.753L112.87 133.579 112.87 123.532C112.87 122.07 112.285 120.68 111.262 119.659 111.044 119.475 109.767 118.233 107.393 116.699 110.935 110.964 112.87 104.35 112.87 97.4446 112.87 82.4013 103.689 69.4752 90.64 63.9523L88.5585 63.5313 88.559 63.5313C115.524 57.9959 135.869 34.0672 135.869 5.4746L135.869 0 65.6284 0 59.0612 0 37.162 0 37.162 10.949 59.0612 10.949 65.6284 10.949 124.618 10.949C121.892 35.0211 101.414 53.7885 76.637 53.7885 61.1516 53.7885 47.3456 46.4575 38.504 35.0824L38.5033 35.0813 31.9754 23.8416 30.9251 19.7584 19.3448 19.7584 22.069 28.5202 23.023 30.2766 27.5363 38.5859C35.5277 50.4108 47.6694 59.2086 61.8521 62.8686L65.4618 63.3248 62.3596 63.9523C49.3122 69.4752 40.13 82.4013 40.13 97.4446 40.13 104.314 42.0656 110.926 45.6443 116.663 43.2339 118.233 41.9557 119.475 41.7364 119.659 40.7147 120.68 40.13 122.07 40.13 123.532L40.13 133.579 26.4009 135.954 26.4009 121.084 35.5299 78.336C35.895 76.7291 35.4928 75.0106 34.4329 73.7331 33.4116 72.4545 31.8412 71.7222 30.1995 71.7222L11.6493 71.7222C10.0047 71.7222 8.43559 72.4545 7.41297 73.7331 6.35305 75.0106 5.95217 76.7291 6.31754 78.336L15.4463 121.084 15.4463 137.853 4.52733 139.753C1.93559 140.228 0 142.493 0 145.161 0 147.828 1.93559 150.093 4.52733 150.568Z" fill="#00C7FD" fill-rule="evenodd" transform="matrix(1 0 0 -1 837 1475)"/></g></svg>